<svg version="1.1" id="Layer_1" xmlns="http://www.w3.org/2000/svg" xmlns:xlink="http://www.w3.org/1999/xlink" x="0px" y="0px"
	 width="100%" viewBox="0 0 286 211" enable-background="new 0 0 286 211" xml:space="preserve">
<path fill="#FEFEFE" opacity="1.000000" stroke="none" 
	d="
M1.000000,77.000000 
	C1.000000,51.333340 1.000000,26.166681 1.000000,1.000017 
	C96.333290,1.000011 191.666580,1.000011 286.999908,1.000006 
	C286.999939,71.333275 286.999939,141.666550 286.999969,211.999878 
	C191.666748,211.999908 96.333504,211.999908 1.000128,211.999954 
	C1.000000,167.166672 1.000000,122.333336 1.000000,77.000000 
M97.713226,92.984955 
	C100.105553,91.933647 102.497879,90.882339 104.968475,89.939735 
	C104.968475,89.939735 104.851288,89.874855 105.666176,89.966621 
	C108.504814,89.966621 111.343452,89.966621 114.270775,89.966621 
	C117.181648,84.927834 131.589691,80.308678 139.088486,82.509735 
	C139.729935,77.552872 140.575058,72.708992 140.899643,67.830490 
	C141.072037,65.239143 140.083298,62.589741 140.063095,59.963123 
	C139.965668,47.304119 139.968689,34.643547 140.069778,21.984594 
	C140.086533,19.885014 140.557037,17.725948 141.183670,15.707964 
	C142.356400,11.931373 140.650223,9.059082 136.633316,9.039668 
	C119.309837,8.955948 101.985374,8.958984 84.662674,9.101640 
	C83.478935,9.111387 82.306755,10.525996 81.230797,12.184226 
	C81.213501,16.675257 81.194092,21.166279 81.179260,25.657320 
	C81.101791,49.106190 81.025497,72.555061 80.617058,96.188881 
	C80.750412,96.457039 80.883766,96.725204 81.215759,97.320518 
	C81.215759,97.320518 81.141403,97.695969 81.094345,98.451187 
	C81.865128,100.936790 82.872559,101.581322 85.325401,99.783615 
	C87.222519,98.393211 89.889458,98.102074 91.976372,96.906990 
	C93.796906,95.864433 95.285263,94.241806 96.983185,92.975128 
	C96.983185,92.975128 96.886406,92.907982 97.713226,92.984955 
M5.946662,176.809555 
	C7.350409,177.220459 8.754155,177.631348 10.080750,178.841202 
	C9.141455,179.945831 8.233440,181.079239 7.252082,182.145142 
	C6.575973,182.879486 5.179631,183.504929 5.162252,184.205276 
	C4.999779,190.752548 5.065952,197.305511 5.065952,204.120972 
	C13.224923,204.120972 20.681990,204.267120 28.130463,204.076843 
	C34.624069,203.910950 37.864002,198.072433 35.197144,192.051880 
	C34.608921,190.723938 34.329739,188.976547 34.637154,187.583115 
	C35.999619,181.407562 32.891201,176.563171 26.547697,176.023743 
	C22.105696,175.645996 17.610209,175.897217 12.884147,175.155319 
	C12.254687,173.445312 11.625228,171.735306 10.564347,169.481445 
	C8.451714,170.341187 6.276669,171.092957 4.320616,172.223602 
	C4.119573,172.339813 5.227240,174.720139 5.946662,176.809555 
M139.628021,158.879120 
	C140.030792,158.421265 140.793655,157.954819 140.782959,157.506821 
	C140.585144,149.218613 139.982941,140.928436 140.092941,132.647018 
	C140.288879,117.894569 140.940491,103.148430 141.239639,88.396370 
	C141.255295,87.624344 139.764023,86.821754 138.464447,85.894020 
	C138.292984,85.853462 138.121536,85.812912 137.349915,85.285973 
	C134.258362,85.900833 130.993347,86.089607 128.126526,87.256561 
	C125.527756,88.314392 123.362938,90.438301 120.808502,92.298416 
	C120.808502,92.298416 120.542419,92.193306 119.634850,92.082115 
	C115.752106,92.731041 111.678238,92.844765 108.029129,94.147911 
	C101.755104,96.388474 95.600372,99.090004 89.685715,102.157494 
	C86.634369,103.740005 82.091942,103.634613 81.186012,109.162674 
	C81.176338,124.237579 81.141304,139.312576 81.194901,154.387253 
	C81.200462,155.952301 81.732498,157.515472 82.535606,159.636688 
	C84.456146,160.090561 86.374077,160.925018 88.297638,160.938217 
	C103.933418,161.045395 119.570663,161.046463 135.205963,160.908539 
	C136.455322,160.897507 137.693344,159.603714 138.983063,158.992340 
	C138.983063,158.992340 138.904022,158.934418 139.628021,158.879120 
M148.098801,159.655411 
	C149.677658,160.294769 151.215408,161.293243 152.846085,161.479919 
	C154.756149,161.698578 156.751343,161.017746 158.702271,161.060593 
	C170.396317,161.317551 182.089966,161.923294 193.779938,161.844742 
	C197.527603,161.819565 201.263702,160.070618 205.295044,158.859375 
	C205.295044,158.859375 205.678436,158.866135 206.523743,158.822052 
	C207.014450,157.230377 207.926468,155.640335 207.932632,154.046783 
	C208.024200,130.323700 208.001205,106.600151 207.983002,82.876732 
	C207.981903,81.446838 207.793533,80.017090 207.625565,77.644608 
	C206.502045,78.955688 206.025635,79.511642 204.857971,79.891571 
	C204.241501,79.541588 203.625015,79.191605 202.996231,78.056801 
	C201.329208,72.552231 196.882858,75.851585 193.311844,75.135338 
	C193.311844,75.135338 193.009018,74.880257 192.916153,74.163559 
	C192.255386,73.488159 191.716370,72.526184 190.913559,72.185051 
	C186.537613,70.325623 182.065643,68.692680 177.684830,66.844078 
	C169.360809,63.331524 161.126114,59.598034 152.716904,56.307449 
	C151.564606,55.856541 149.625183,57.417137 148.000610,58.000000 
	C148.000610,58.000000 148.046524,58.049522 147.240540,58.180283 
	C146.826477,59.668827 146.082123,61.151337 146.054794,62.646950 
	C145.927277,69.626083 146.041809,76.609161 145.989426,83.590233 
	C145.807571,107.829460 145.563797,132.068375 145.505646,156.307785 
	C145.503555,157.176941 147.208496,158.050171 148.030930,158.979156 
	C148.030930,158.979156 148.075119,158.884659 148.098801,159.655411 
M148.000000,48.000038 
	C148.000000,48.000038 148.011383,47.986000 148.093628,48.693703 
	C150.755844,50.452469 153.240067,52.624607 156.124756,53.866680 
	C159.836090,55.464687 163.999847,56.000767 167.736801,57.552689 
	C176.925369,61.368584 185.964096,65.543755 195.103394,69.480873 
	C197.187485,70.378677 199.463501,70.820885 201.596466,71.619003 
	C202.975433,72.134987 204.254883,72.916916 205.578918,73.579666 
	C206.378326,71.835037 207.712067,70.136856 207.868576,68.336342 
	C208.220551,64.287209 207.992767,60.187332 207.993820,56.108109 
	C207.997421,42.114353 207.894897,28.119345 208.065353,14.127645 
	C208.113571,10.169608 206.665176,8.874868 202.797485,8.937140 
	C191.805222,9.114120 180.808289,9.000428 169.813187,9.001900 
	C163.149506,9.002791 156.470840,8.764296 149.832840,9.178049 
	C148.198196,9.279938 145.359192,11.494487 145.345856,12.761715 
	C145.244675,22.378906 145.600677,32.007416 146.079391,41.619190 
	C146.186462,43.769283 147.341415,45.867184 148.000000,48.000038 
M90.600418,189.338730 
	C90.600418,194.129150 90.600418,198.919571 90.600418,203.925293 
	C92.905708,203.925293 94.662331,203.925293 97.014679,203.925293 
	C97.014679,198.317841 97.014679,192.928055 97.014679,187.592331 
	C100.207649,187.592331 102.800934,187.592331 105.872025,187.592331 
	C105.872025,193.167297 105.872025,198.421707 105.872025,203.897980 
	C108.087685,203.897980 109.819534,203.897980 111.999008,203.897980 
	C111.999008,198.387253 112.513527,193.023743 111.746124,187.850403 
	C111.438583,185.777145 108.388206,182.627686 106.453094,182.526947 
	C96.221039,181.994354 85.946541,182.277023 75.486053,182.277023 
	C75.486053,189.748306 75.486053,196.668808 75.486053,203.756317 
	C77.582298,203.756317 79.432861,203.756317 81.802795,203.756317 
	C81.802795,198.132614 81.802795,192.879700 81.802795,186.841431 
	C85.079582,187.405548 87.727905,187.861481 90.600418,189.338730 
M236.436478,190.277145 
	C233.103226,190.284500 229.753830,190.089325 226.441055,190.353470 
	C222.782303,190.645187 220.788940,192.894836 220.577133,196.595749 
	C220.379654,200.046188 221.242859,203.632019 224.996994,203.862640 
	C233.218628,204.367722 241.492722,204.019043 249.999023,204.019043 
	C249.999023,198.443787 250.114899,193.461716 249.960770,188.487991 
	C249.846390,184.796204 247.671768,182.473785 244.025284,182.362595 
	C236.894882,182.145172 229.753159,182.298767 222.473633,182.298767 
	C222.615036,185.816162 223.925613,187.384033 227.395355,187.206924 
	C231.883575,186.977829 236.396179,187.050583 240.889572,187.221924 
	C242.016708,187.264908 243.110550,188.181046 244.219681,188.695908 
	C244.064255,189.222946 243.908829,189.749969 243.753403,190.276993 
	C241.636490,190.276993 239.519562,190.276993 236.436478,190.277145 
M64.412743,204.122223 
	C66.177055,204.122223 67.941360,204.122223 69.972313,204.122223 
	C69.972313,198.420471 70.479469,193.216751 69.736794,188.197983 
	C69.414223,186.018127 66.659897,182.688858 64.770538,182.517151 
	C57.448788,181.851730 50.030685,182.246490 42.608585,182.246490 
	C42.779835,186.221619 44.447437,187.434570 47.783768,187.237137 
	C52.095913,186.981949 56.437958,187.051666 60.757687,187.221481 
	C61.960930,187.268784 63.130836,188.164001 64.316032,188.670212 
	C64.188583,189.205246 64.061134,189.740265 63.933685,190.275284 
	C58.676529,190.275284 53.418770,190.225479 48.162392,190.289444 
	C43.002693,190.352219 40.656528,192.667572 40.720547,197.456436 
	C40.785007,202.278412 42.686523,204.072388 47.957142,204.121353 
	C53.115543,204.169281 58.274799,204.125595 64.412743,204.122223 
M278.214691,182.965942 
	C272.815918,182.589142 267.417114,182.212341 261.992249,181.833710 
	C261.799896,180.228516 261.626984,178.785675 261.445862,177.274048 
	C259.329895,177.274048 257.442261,177.274048 255.448273,177.274048 
	C255.448273,186.313370 255.448273,195.026077 255.448273,204.139404 
	C262.546906,204.139404 269.338928,204.296829 276.113312,204.020721 
	C277.666901,203.957413 279.589630,202.742783 280.598145,201.468796 
	C283.385468,197.947845 282.178406,186.889603 278.214691,182.965942 
M137.708206,182.318542 
	C132.953812,182.318542 128.199402,182.318542 123.600975,182.318542 
	C123.189529,179.956543 122.922508,178.423676 122.636238,176.780319 
	C120.518791,176.903091 118.783119,177.003738 117.161331,177.097778 
	C117.161331,186.336044 117.161331,195.059052 117.161331,204.112167 
	C121.427094,204.112167 125.386223,204.111221 129.345352,204.112350 
	C143.301514,204.116333 143.221817,204.116135 143.301468,190.132385 
	C143.322906,186.367462 142.270538,183.644424 137.708206,182.318542 
M148.059662,196.137665 
	C148.770645,202.988464 149.954742,204.086594 156.716812,204.113266 
	C160.868973,204.129654 165.021255,204.123428 169.173477,204.123169 
	C172.749771,204.122940 174.971375,202.241669 175.143753,198.793488 
	C175.414413,193.378952 175.215607,187.940964 175.215607,182.430466 
	C173.227814,182.430466 171.641006,182.430466 169.448410,182.430466 
	C169.448410,188.074203 169.448410,193.459473 169.448410,198.840240 
	C163.984375,198.840240 159.136612,198.840240 153.903992,198.840240 
	C153.903992,193.153488 153.903992,187.901154 153.903992,182.490860 
	C151.804642,182.490860 150.107361,182.490860 148.057388,182.490860 
	C148.057388,186.957596 148.057388,191.087585 148.059662,196.137665 
M208.458374,204.106369 
	C211.329102,204.106369 214.199814,204.106369 217.935272,204.106369 
	C214.003143,195.195526 206.512939,201.145706 201.243225,198.117233 
	C201.243225,191.466324 201.243225,184.422668 201.243225,177.335480 
	C198.882431,177.335480 197.036987,177.335480 195.285736,177.335480 
	C195.285736,186.412155 195.285736,195.118942 195.285736,204.106476 
	C199.558044,204.106476 203.514969,204.106476 208.458374,204.106369 
z"/>
<path fill="#27A546" opacity="1.000000" stroke="none" 
	d="
M193.009018,74.880257 
	C193.009018,74.880257 193.311844,75.135338 193.723877,75.426010 
	C197.093445,76.758324 200.050995,77.799973 203.008545,78.841621 
	C203.625015,79.191605 204.241501,79.541588 205.260101,80.365097 
	C205.667633,106.847786 205.673035,132.856964 205.678436,158.866135 
	C205.678436,158.866135 205.295044,158.859375 204.685547,158.915497 
	C185.409073,158.942642 166.742096,158.913651 148.075119,158.884659 
	C148.075119,158.884659 148.030930,158.979156 148.044952,158.488434 
	C148.054825,124.681648 148.050674,91.365585 148.046524,58.049522 
	C148.046524,58.049522 148.000610,58.000000 148.400055,58.039253 
	C149.903564,58.428658 151.029083,58.722919 152.108414,59.137451 
	C165.745819,64.374969 179.376572,69.629822 193.009018,74.880257 
z"/>
<path fill="#27A446" opacity="1.000000" stroke="none" 
	d="
M81.141403,97.695969 
	C81.141403,97.695969 81.215759,97.320518 81.183601,96.903809 
	C81.083885,96.326042 81.016335,96.164986 80.948784,96.003929 
	C81.025497,72.555061 81.101791,49.106190 81.179260,25.657320 
	C81.194092,21.166279 81.213501,16.675257 81.634377,11.660179 
	C100.927048,11.136133 119.816147,11.136133 139.033859,11.136133 
	C139.033859,31.396996 138.885513,51.021603 139.154877,70.640472 
	C139.210983,74.728081 137.803604,76.473572 134.223251,77.859146 
	C124.359795,81.676262 114.632469,85.845131 104.851288,89.874855 
	C104.851288,89.874855 104.968475,89.939735 104.556717,89.892044 
	C101.725441,90.865562 99.305923,91.886772 96.886406,92.907974 
	C96.886406,92.907982 96.983185,92.975128 96.574280,92.940262 
	C91.157387,94.502258 86.149391,96.099113 81.141403,97.695969 
z"/>
<path fill="#28A547" opacity="1.000000" stroke="none" 
	d="
M120.542419,92.193306 
	C120.542419,92.193306 120.808502,92.298416 121.290596,92.225159 
	C127.165154,90.025391 132.557617,87.898880 137.950073,85.772369 
	C138.121536,85.812912 138.292984,85.853462 138.721008,86.429298 
	C138.953049,110.954521 138.928528,134.944473 138.904022,158.934418 
	C138.904022,158.934418 138.983063,158.992340 138.496155,158.960205 
	C119.346252,158.978531 100.683250,159.029022 82.020248,159.079498 
	C81.732498,157.515472 81.200462,155.952301 81.194901,154.387253 
	C81.141304,139.312576 81.176338,124.237579 81.520760,108.640640 
	C84.439415,107.067406 87.027596,106.026581 89.606476,104.963173 
	C99.920021,100.710358 110.230690,96.450539 120.542419,92.193306 
z"/>
<path fill="#3F3F3F" opacity="1.000000" stroke="none" 
	d="
M13.138612,175.867538 
	C17.610209,175.897217 22.105696,175.645996 26.547697,176.023743 
	C32.891201,176.563171 35.999619,181.407562 34.637154,187.583115 
	C34.329739,188.976547 34.608921,190.723938 35.197144,192.051880 
	C37.864002,198.072433 34.624069,203.910950 28.130463,204.076843 
	C20.681990,204.267120 13.224923,204.120972 5.065952,204.120972 
	C5.065952,197.305511 4.999779,190.752548 5.162252,184.205276 
	C5.179631,183.504929 6.575973,182.879486 7.252082,182.145142 
	C8.233440,181.079239 9.141455,179.945831 10.423458,178.365326 
	C11.556983,177.215500 12.347798,176.541519 13.138612,175.867538 
M20.440035,199.335297 
	C22.102814,199.321991 23.911133,199.715363 25.389349,199.186340 
	C27.019735,198.602859 28.347191,197.172928 29.806599,196.111694 
	C28.402258,194.782379 27.113493,192.492188 25.571562,192.306732 
	C21.219828,191.783279 16.764175,192.123734 12.421919,192.123734 
	C12.421919,194.830597 12.421919,196.772598 12.421919,199.336685 
	C14.950409,199.336685 17.221218,199.336685 20.440035,199.335297 
M25.109015,180.797943 
	C20.907574,180.797943 16.706133,180.797943 12.465353,180.797943 
	C12.465353,183.234085 12.465353,184.981537 12.465353,187.278320 
	C16.603487,187.278320 20.522669,187.436935 24.415667,187.187286 
	C25.678877,187.106277 27.909975,185.925949 27.891491,185.301987 
	C27.848289,183.843491 26.710201,182.417435 25.109015,180.797943 
z"/>
<path fill="#414141" opacity="1.000000" stroke="none" 
	d="
M90.488327,188.828064 
	C87.727905,187.861481 85.079582,187.405548 81.802795,186.841431 
	C81.802795,192.879700 81.802795,198.132614 81.802795,203.756317 
	C79.432861,203.756317 77.582298,203.756317 75.486053,203.756317 
	C75.486053,196.668808 75.486053,189.748306 75.486053,182.277023 
	C85.946541,182.277023 96.221039,181.994354 106.453094,182.526947 
	C108.388206,182.627686 111.438583,185.777145 111.746124,187.850403 
	C112.513527,193.023743 111.999008,198.387253 111.999008,203.897980 
	C109.819534,203.897980 108.087685,203.897980 105.872025,203.897980 
	C105.872025,198.421707 105.872025,193.167297 105.872025,187.592331 
	C102.800934,187.592331 100.207649,187.592331 97.014679,187.592331 
	C97.014679,192.928055 97.014679,198.317841 97.014679,203.925293 
	C94.662331,203.925293 92.905708,203.925293 90.600418,203.925293 
	C90.600418,198.919571 90.600418,194.129150 90.488327,188.828064 
z"/>
<path fill="#414141" opacity="1.000000" stroke="none" 
	d="
M236.919556,190.277069 
	C239.519562,190.276993 241.636490,190.276993 243.753403,190.276993 
	C243.908829,189.749969 244.064255,189.222946 244.219681,188.695908 
	C243.110550,188.181046 242.016708,187.264908 240.889572,187.221924 
	C236.396179,187.050583 231.883575,186.977829 227.395355,187.206924 
	C223.925613,187.384033 222.615036,185.816162 222.473633,182.298767 
	C229.753159,182.298767 236.894882,182.145172 244.025284,182.362595 
	C247.671768,182.473785 249.846390,184.796204 249.960770,188.487991 
	C250.114899,193.461716 249.999023,198.443787 249.999023,204.019043 
	C241.492722,204.019043 233.218628,204.367722 224.996994,203.862640 
	C221.242859,203.632019 220.379654,200.046188 220.577133,196.595749 
	C220.788940,192.894836 222.782303,190.645187 226.441055,190.353470 
	C229.753830,190.089325 233.103226,190.284500 236.919556,190.277069 
M237.453949,199.296432 
	C243.898590,199.340012 243.898590,199.340012 243.428406,195.150406 
	C238.553238,195.150406 233.621918,195.041992 228.704330,195.253342 
	C227.849472,195.290085 227.052658,196.677048 226.229050,197.440399 
	C227.002777,198.051758 227.736038,199.117386 228.557693,199.190567 
	C231.180450,199.424118 233.836029,199.289185 237.453949,199.296432 
z"/>
<path fill="#3E3F3F" opacity="1.000000" stroke="none" 
	d="
M63.923210,204.122162 
	C58.274799,204.125595 53.115543,204.169281 47.957142,204.121353 
	C42.686523,204.072388 40.785007,202.278412 40.720547,197.456436 
	C40.656528,192.667572 43.002693,190.352219 48.162392,190.289444 
	C53.418770,190.225479 58.676529,190.275284 63.933685,190.275284 
	C64.061134,189.740265 64.188583,189.205246 64.316032,188.670212 
	C63.130836,188.164001 61.960930,187.268784 60.757687,187.221481 
	C56.437958,187.051666 52.095913,186.981949 47.783768,187.237137 
	C44.447437,187.434570 42.779835,186.221619 42.608585,182.246490 
	C50.030685,182.246490 57.448788,181.851730 64.770538,182.517151 
	C66.659897,182.688858 69.414223,186.018127 69.736794,188.197983 
	C70.479469,193.216751 69.972313,198.420471 69.972313,204.122223 
	C67.941360,204.122223 66.177055,204.122223 63.923210,204.122162 
M56.481934,195.123764 
	C46.897320,195.133347 46.897320,195.133347 46.476051,199.297775 
	C51.780720,199.297775 57.042404,199.435837 62.280792,199.148819 
	C63.065960,199.105789 63.742016,197.071472 65.010719,195.127625 
	C61.385288,195.127625 59.412266,195.127625 56.481934,195.123764 
z"/>
<path fill="#EEFDF3" opacity="1.000000" stroke="none" 
	d="
M148.013931,47.989113 
	C147.341415,45.867184 146.186462,43.769283 146.079391,41.619190 
	C145.600677,32.007416 145.244675,22.378906 145.345856,12.761715 
	C145.359192,11.494487 148.198196,9.279938 149.832840,9.178049 
	C156.470840,8.764296 163.149506,9.002791 169.813187,9.001900 
	C180.808289,9.000428 191.805222,9.114120 202.797485,8.937140 
	C206.665176,8.874868 208.113571,10.169608 208.065353,14.127645 
	C207.894897,28.119345 207.997421,42.114353 207.993820,56.108109 
	C207.992767,60.187332 208.220551,64.287209 207.868576,68.336342 
	C207.712067,70.136856 206.378326,71.835037 205.578918,73.579666 
	C204.254883,72.916916 202.975433,72.134987 201.596466,71.619003 
	C199.463501,70.820885 197.187485,70.378677 195.103394,69.480873 
	C185.964096,65.543755 176.925369,61.368584 167.736801,57.552689 
	C163.999847,56.000767 159.836090,55.464687 156.124756,53.866680 
	C153.240067,52.624607 150.755844,50.452469 148.412262,48.410179 
	C167.496841,55.542084 186.262772,62.957512 205.487732,70.554321 
	C205.487732,50.224327 205.487732,30.854263 205.487732,11.327389 
	C186.253448,11.327389 167.379608,11.327389 148.013931,11.327389 
	C148.013931,23.765390 148.013931,35.877251 148.013931,47.989113 
z"/>
<path fill="#414141" opacity="1.000000" stroke="none" 
	d="
M278.573822,183.163177 
	C282.178406,186.889603 283.385468,197.947845 280.598145,201.468796 
	C279.589630,202.742783 277.666901,203.957413 276.113312,204.020721 
	C269.338928,204.296829 262.546906,204.139404 255.448273,204.139404 
	C255.448273,195.026077 255.448273,186.313370 255.448273,177.274048 
	C257.442261,177.274048 259.329895,177.274048 261.445862,177.274048 
	C261.626984,178.785675 261.799896,180.228516 261.992249,181.833710 
	C267.417114,182.212341 272.815918,182.589142 278.573822,183.163177 
M269.389709,199.431564 
	C276.338379,199.429504 277.438843,197.080490 274.870789,187.467239 
	C270.700256,187.467239 266.486298,187.467239 262.103668,187.467239 
	C262.103668,191.565826 262.103668,195.390106 262.103668,199.431610 
	C264.474731,199.431610 266.447144,199.431610 269.389709,199.431564 
z"/>
<path fill="#3A3A3A" opacity="1.000000" stroke="none" 
	d="
M138.128784,182.335815 
	C142.270538,183.644424 143.322906,186.367462 143.301468,190.132385 
	C143.221817,204.116135 143.301514,204.116333 129.345352,204.112350 
	C125.386223,204.111221 121.427094,204.112167 117.161331,204.112167 
	C117.161331,195.059052 117.161331,186.336044 117.161331,177.097778 
	C118.783119,177.003738 120.518791,176.903091 122.636238,176.780319 
	C122.922508,178.423676 123.189529,179.956543 123.600975,182.318542 
	C128.199402,182.318542 132.953812,182.318542 138.128784,182.335815 
M131.489944,199.284729 
	C133.250381,199.284729 135.010834,199.284729 136.771362,199.284729 
	C136.771362,194.966293 136.771362,191.254242 136.771362,187.612000 
	C132.030594,187.612000 127.667824,187.612000 123.384613,187.612000 
	C123.384613,191.647110 123.384613,195.244858 123.384613,199.284729 
	C125.940971,199.284729 128.230865,199.284729 131.489944,199.284729 
z"/>
<path fill="#3D3E3D" opacity="1.000000" stroke="none" 
	d="
M148.058533,195.677628 
	C148.057388,191.087585 148.057388,186.957596 148.057388,182.490860 
	C150.107361,182.490860 151.804642,182.490860 153.903992,182.490860 
	C153.903992,187.901154 153.903992,193.153488 153.903992,198.840240 
	C159.136612,198.840240 163.984375,198.840240 169.448410,198.840240 
	C169.448410,193.459473 169.448410,188.074203 169.448410,182.430466 
	C171.641006,182.430466 173.227814,182.430466 175.215607,182.430466 
	C175.215607,187.940964 175.414413,193.378952 175.143753,198.793488 
	C174.971375,202.241669 172.749771,204.122940 169.173477,204.123169 
	C165.021255,204.123428 160.868973,204.129654 156.716812,204.113266 
	C149.954742,204.086594 148.770645,202.988464 148.058533,195.677628 
z"/>
<path fill="#EEFDF3" opacity="1.000000" stroke="none" 
	d="
M105.258728,89.920738 
	C114.632469,85.845131 124.359795,81.676262 134.223251,77.859146 
	C137.803604,76.473572 139.210983,74.728081 139.154877,70.640472 
	C138.885513,51.021603 139.033859,31.396996 139.033859,11.136133 
	C119.816147,11.136133 100.927048,11.136133 81.583580,11.211693 
	C82.306755,10.525996 83.478935,9.111387 84.662674,9.101640 
	C101.985374,8.958984 119.309837,8.955948 136.633316,9.039668 
	C140.650223,9.059082 142.356400,11.931373 141.183670,15.707964 
	C140.557037,17.725948 140.086533,19.885014 140.069778,21.984594 
	C139.968689,34.643547 139.965668,47.304119 140.063095,59.963123 
	C140.083298,62.589741 141.072037,65.239143 140.899643,67.830490 
	C140.575058,72.708992 139.729935,77.552872 139.088486,82.509735 
	C131.589691,80.308678 117.181648,84.927834 114.270775,89.966621 
	C111.343452,89.966621 108.504814,89.966621 105.258728,89.920738 
z"/>
<path fill="#363636" opacity="1.000000" stroke="none" 
	d="
M207.965134,204.106415 
	C203.514969,204.106476 199.558044,204.106476 195.285736,204.106476 
	C195.285736,195.118942 195.285736,186.412155 195.285736,177.335480 
	C197.036987,177.335480 198.882431,177.335480 201.243225,177.335480 
	C201.243225,184.422668 201.243225,191.466324 201.243225,198.117233 
	C206.512939,201.145706 214.003143,195.195526 217.935272,204.106369 
	C214.199814,204.106369 211.329102,204.106369 207.965134,204.106415 
z"/>
<path fill="#EEFDF3" opacity="1.000000" stroke="none" 
	d="
M147.643524,58.114902 
	C148.050674,91.365585 148.054825,124.681648 148.088409,158.459610 
	C147.208496,158.050171 145.503555,157.176941 145.505646,156.307785 
	C145.563797,132.068375 145.807571,107.829460 145.989426,83.590233 
	C146.041809,76.609161 145.927277,69.626083 146.054794,62.646950 
	C146.082123,61.151337 146.826477,59.668827 147.643524,58.114902 
z"/>
<path fill="#EEFDF3" opacity="1.000000" stroke="none" 
	d="
M206.101089,158.844086 
	C205.673035,132.856964 205.667633,106.847786 205.605713,80.453102 
	C206.025635,79.511642 206.502045,78.955688 207.625565,77.644608 
	C207.793533,80.017090 207.981903,81.446838 207.983002,82.876732 
	C208.001205,106.600151 208.024200,130.323700 207.932632,154.046783 
	C207.926468,155.640335 207.014450,157.230377 206.101089,158.844086 
z"/>
<path fill="#EEFDF3" opacity="1.000000" stroke="none" 
	d="
M148.086960,159.270035 
	C166.742096,158.913651 185.409073,158.942642 204.540573,159.040985 
	C201.263702,160.070618 197.527603,161.819565 193.779938,161.844742 
	C182.089966,161.923294 170.396317,161.317551 158.702271,161.060593 
	C156.751343,161.017746 154.756149,161.698578 152.846085,161.479919 
	C151.215408,161.293243 149.677658,160.294769 148.086960,159.270035 
z"/>
<path fill="#EEFDF3" opacity="1.000000" stroke="none" 
	d="
M82.277931,159.358093 
	C100.683250,159.029022 119.346252,158.978531 138.472946,158.917053 
	C137.693344,159.603714 136.455322,160.897507 135.205963,160.908539 
	C119.570663,161.046463 103.933418,161.045395 88.297638,160.938217 
	C86.374077,160.925018 84.456146,160.090561 82.277931,159.358093 
z"/>
<path fill="#EEFDF3" opacity="1.000000" stroke="none" 
	d="
M139.266022,158.906769 
	C138.928528,134.944473 138.953049,110.954521 138.975922,86.498978 
	C139.764023,86.821754 141.255295,87.624344 141.239639,88.396370 
	C140.940491,103.148430 140.288879,117.894569 140.092941,132.647018 
	C139.982941,140.928436 140.585144,149.218613 140.782959,157.506821 
	C140.793655,157.954819 140.030792,158.421265 139.266022,158.906769 
z"/>
<path fill="#EEFDF3" opacity="1.000000" stroke="none" 
	d="
M192.962585,74.521912 
	C179.376572,69.629822 165.745819,64.374969 152.108414,59.137451 
	C151.029083,58.722919 149.903564,58.428658 148.424835,58.062469 
	C149.625183,57.417137 151.564606,55.856541 152.716904,56.307449 
	C161.126114,59.598034 169.360809,63.331524 177.684830,66.844078 
	C182.065643,68.692680 186.537613,70.325623 190.913559,72.185051 
	C191.716370,72.526184 192.255386,73.488159 192.962585,74.521912 
z"/>
<path fill="#EEFDF3" opacity="1.000000" stroke="none" 
	d="
M120.088638,92.137711 
	C110.230690,96.450539 99.920021,100.710358 89.606476,104.963173 
	C87.027596,106.026581 84.439415,107.067406 81.490585,108.189041 
	C82.091942,103.634613 86.634369,103.740005 89.685715,102.157494 
	C95.600372,99.090004 101.755104,96.388474 108.029129,94.147911 
	C111.678238,92.844765 115.752106,92.731041 120.088638,92.137711 
z"/>
<path fill="#539F67" opacity="1.000000" stroke="none" 
	d="
M13.011380,175.511429 
	C12.347798,176.541519 11.556983,177.215500 10.462034,177.965851 
	C8.754155,177.631348 7.350409,177.220459 5.933752,176.049896 
	C5.157393,171.168793 9.160893,171.642227 10.995769,170.025299 
	C11.625228,171.735306 12.254687,173.445312 13.011380,175.511429 
z"/>
<path fill="#EEFDF3" opacity="1.000000" stroke="none" 
	d="
M137.649994,85.529175 
	C132.557617,87.898880 127.165154,90.025391 121.389740,92.122040 
	C123.362938,90.438301 125.527756,88.314392 128.126526,87.256561 
	C130.993347,86.089607 134.258362,85.900833 137.649994,85.529175 
z"/>
<path fill="#EEFDF3" opacity="1.000000" stroke="none" 
	d="
M81.117874,98.073578 
	C86.149391,96.099113 91.157387,94.502258 96.542877,92.890442 
	C95.285263,94.241806 93.796906,95.864433 91.976372,96.906990 
	C89.889458,98.102074 87.222519,98.393211 85.325401,99.783615 
	C82.872559,101.581322 81.865128,100.936790 81.117874,98.073578 
z"/>
<path fill="#EEFDF3" opacity="1.000000" stroke="none" 
	d="
M203.002380,78.449211 
	C200.050995,77.799973 197.093445,76.758324 193.921753,75.420578 
	C196.882858,75.851585 201.329208,72.552231 203.002380,78.449211 
z"/>
<path fill="#E0F9E5" opacity="1.000000" stroke="none" 
	d="
M10.780058,169.753372 
	C9.160893,171.642227 5.157393,171.168793 5.824241,175.670059 
	C5.227240,174.720139 4.119573,172.339813 4.320616,172.223602 
	C6.276669,171.092957 8.451714,170.341187 10.780058,169.753372 
z"/>
<path fill="#EEFDF3" opacity="1.000000" stroke="none" 
	d="
M97.299820,92.946465 
	C99.305923,91.886772 101.725441,90.865562 104.517586,89.837692 
	C102.497879,90.882339 100.105553,91.933647 97.299820,92.946465 
z"/>
<path fill="#EEFDF3" opacity="1.000000" stroke="none" 
	d="
M80.782921,96.096405 
	C81.016335,96.164986 81.083885,96.326042 81.084282,96.740234 
	C80.883766,96.725204 80.750412,96.457039 80.782921,96.096405 
z"/>
<path fill="#F1F1F1" opacity="1.000000" stroke="none" 
	d="
M19.966030,199.335999 
	C17.221218,199.336685 14.950409,199.336685 12.421919,199.336685 
	C12.421919,196.772598 12.421919,194.830597 12.421919,192.123734 
	C16.764175,192.123734 21.219828,191.783279 25.571562,192.306732 
	C27.113493,192.492188 28.402258,194.782379 29.806599,196.111694 
	C28.347191,197.172928 27.019735,198.602859 25.389349,199.186340 
	C23.911133,199.715363 22.102814,199.321991 19.966030,199.335999 
z"/>
<path fill="#F8F8F8" opacity="1.000000" stroke="none" 
	d="
M25.562260,180.888092 
	C26.710201,182.417435 27.848289,183.843491 27.891491,185.301987 
	C27.909975,185.925949 25.678877,187.106277 24.415667,187.187286 
	C20.522669,187.436935 16.603487,187.278320 12.465353,187.278320 
	C12.465353,184.981537 12.465353,183.234085 12.465353,180.797943 
	C16.706133,180.797943 20.907574,180.797943 25.562260,180.888092 
z"/>
<path fill="#F0F0F0" opacity="1.000000" stroke="none" 
	d="
M236.966446,199.296478 
	C233.836029,199.289185 231.180450,199.424118 228.557693,199.190567 
	C227.736038,199.117386 227.002777,198.051758 226.229034,197.440399 
	C227.052658,196.677048 227.849472,195.290085 228.704330,195.253342 
	C233.621918,195.041992 238.553238,195.150406 243.428406,195.150406 
	C243.898590,199.340012 243.898590,199.340012 236.966446,199.296478 
z"/>
<path fill="#F0F2F1" opacity="1.000000" stroke="none" 
	d="
M56.960587,195.125702 
	C59.412266,195.127625 61.385288,195.127625 65.010719,195.127625 
	C63.742016,197.071472 63.065960,199.105789 62.280792,199.148819 
	C57.042404,199.435837 51.780720,199.297775 46.476051,199.297775 
	C46.897320,195.133347 46.897320,195.133347 56.960587,195.125702 
z"/>
<path fill="#28A447" opacity="1.000000" stroke="none" 
	d="
M148.006958,47.994576 
	C148.013931,35.877251 148.013931,23.765390 148.013931,11.327389 
	C167.379608,11.327389 186.253448,11.327389 205.487732,11.327389 
	C205.487732,30.854263 205.487732,50.224327 205.487732,70.554321 
	C186.262772,62.957512 167.496841,55.542084 148.371155,48.056328 
	C148.011383,47.986000 148.000000,48.000038 148.006958,47.994576 
z"/>
<path fill="#F2F2F2" opacity="1.000000" stroke="none" 
	d="
M268.904633,199.431580 
	C266.447144,199.431610 264.474731,199.431610 262.103668,199.431610 
	C262.103668,195.390106 262.103668,191.565826 262.103668,187.467239 
	C266.486298,187.467239 270.700256,187.467239 274.870789,187.467239 
	C277.438843,197.080490 276.338379,199.429504 268.904633,199.431580 
z"/>
<path fill="#F7F7F7" opacity="1.000000" stroke="none" 
	d="
M131.005356,199.284729 
	C128.230865,199.284729 125.940971,199.284729 123.384613,199.284729 
	C123.384613,195.244858 123.384613,191.647110 123.384613,187.612000 
	C127.667824,187.612000 132.030594,187.612000 136.771362,187.612000 
	C136.771362,191.254242 136.771362,194.966293 136.771362,199.284729 
	C135.010834,199.284729 133.250381,199.284729 131.005356,199.284729 
z"/>
</svg>