<?xml version="1.0" encoding="UTF-8"?>
<svg version="1.1" xmlns="http://www.w3.org/2000/svg" width="500" height="500">
<path d="M0 0 C165 0 330 0 500 0 C500 165 500 330 500 500 C335 500 170 500 0 500 C0 335 0 170 0 0 Z " fill="#FEFEFE" transform="translate(0,0)"/>
<path d="M0 0 C4.9239412 0.82065687 8.35888847 1.79045268 12.8828125 3.66015625 C13.53716278 3.9283165 14.19151306 4.19647675 14.86569214 4.47276306 C16.95458348 5.33018171 19.03986296 6.19599679 21.125 7.0625 C33.38689557 12.11960747 45.68365575 17.0734623 58 22 C58 48.07 58 74.14 58 101 C38.86 101 19.72 101 0 101 C0 67.67 0 34.34 0 0 Z " fill="#26A545" transform="translate(255,192)"/>
<path d="M0 0 C19.14 0 38.28 0 58 0 C58 21.45 58 42.9 58 65 C25.9976145 78.24236641 25.9976145 78.24236641 16.1953125 81.8203125 C12.39227043 83.2243696 8.65071558 84.75546294 4.91796875 86.3359375 C3 87 3 87 0 87 C0 58.29 0 29.58 0 0 Z " fill="#26A545" transform="translate(188,145)"/>
<path d="M0 0 C0 24.09 0 48.18 0 73 C-19.14 73 -38.28 73 -58 73 C-58 56.17 -58 39.34 -58 22 C-46.615 17.545 -46.615 17.545 -35 13 C-30.58606877 11.17309899 -30.58606877 11.17309899 -26.1796875 9.328125 C-21.61033195 7.41954897 -17.02693757 5.54720581 -12.4375 3.6875 C-11.55489502 3.32519287 -10.67229004 2.96288574 -9.76293945 2.58959961 C-8.93238037 2.25452393 -8.10182129 1.91944824 -7.24609375 1.57421875 C-6.50029053 1.27088623 -5.7544873 0.96755371 -4.98608398 0.6550293 C-3 0 -3 0 0 0 Z " fill="#24A544" transform="translate(246,220)"/>
<path d="M0 0 C19.14 0 38.28 0 58 0 C58 19.47 58 38.94 58 59 C53.35848773 58.22641462 50.07892575 57.40777161 45.81640625 55.70703125 C44.64827393 55.24433838 43.4801416 54.78164551 42.27661133 54.30493164 C41.03850318 53.80763126 39.80046731 53.31015088 38.5625 52.8125 C37.29406237 52.30736276 36.02542541 51.80272575 34.7565918 51.29858398 C32.27714371 50.3123507 29.79936119 49.32223747 27.32226562 48.33007812 C24.59765839 47.23927417 21.87062987 46.15531852 19.140625 45.078125 C12.68466181 42.52333797 6.35276813 39.8234525 0 37 C0 24.79 0 12.58 0 0 Z " fill="#24A543" transform="translate(255,145)"/>
<path d="M0 0 C2.71003427 -0.1358035 5.41318941 -0.23444624 8.125 -0.3125 C8.88554688 -0.35439453 9.64609375 -0.39628906 10.4296875 -0.43945312 C14.48058147 -0.52675687 17.2345605 -0.28610747 20.53515625 2.1953125 C23 5 23 5 23.55078125 7.60546875 C23.43283203 8.88357422 23.43283203 8.88357422 23.3125 10.1875 C22.91780076 13.7307815 22.91780076 13.7307815 24 17 C24.57646089 23.22577766 24.57646089 23.22577766 22.36035156 26.20214844 C19.34131861 28.50170974 17.68581084 28.46442766 13.921875 28.390625 C12.76171875 28.37773437 11.6015625 28.36484375 10.40625 28.3515625 C9.1996875 28.31804687 7.993125 28.28453125 6.75 28.25 C4.91695312 28.22292969 4.91695312 28.22292969 3.046875 28.1953125 C0.03091545 28.14818813 -2.98464119 28.07644572 -6 28 C-6 21.07 -6 14.14 -6 7 C-4.02 6.34 -2.04 5.68 0 5 C0 3.35 0 1.7 0 0 Z " fill="#3E3E3E" transform="translate(119,310)"/>
<path d="M0 0 C2.31 0 4.62 0 7 0 C7 1.65 7 3.3 7 5 C8.10859375 4.95359375 9.2171875 4.9071875 10.359375 4.859375 C11.82288968 4.82184898 13.28643356 4.78544971 14.75 4.75 C15.84441406 4.69972656 15.84441406 4.69972656 16.9609375 4.6484375 C20.36630692 4.58652169 22.58316531 4.73563389 25.48828125 6.578125 C27.5298718 9.84889023 27.49843314 12.16527447 27.4375 16 C27.43621094 17.216875 27.43492187 18.43375 27.43359375 19.6875 C26.96435493 23.27231547 26.51970972 24.48299528 24 27 C21.45629883 27.45410156 21.45629883 27.45410156 18.45703125 27.390625 C17.48999268 27.38063477 16.5229541 27.37064453 15.52661133 27.36035156 C14.30095459 27.32393555 13.07529785 27.28751953 11.8125 27.25 C7.914375 27.1675 4.01625 27.085 0 27 C0 18.09 0 9.18 0 0 Z " fill="#3F3F3F" transform="translate(362,311)"/>
<path d="M0 0 C1.98 0 3.96 0 6 0 C6 1.65 6 3.3 6 5 C7.66289062 4.94779297 7.66289062 4.94779297 9.359375 4.89453125 C10.82290148 4.86638651 12.28644439 4.83908708 13.75 4.8125 C14.84441406 4.77479492 14.84441406 4.77479492 15.9609375 4.73632812 C19.05552711 4.69412918 21.60698072 4.84020095 24.48828125 6.01171875 C26.8369008 9.10073 26.5399424 12.28563695 26.4375 16 C26.44458984 16.72445313 26.45167969 17.44890625 26.45898438 18.1953125 C26.39618221 23.43204705 26.39618221 23.43204705 24.80566406 25.7121582 C22.33731484 27.47264254 20.68866254 27.34290601 17.67578125 27.29296875 C16.74934814 27.28547607 15.82291504 27.2779834 14.8684082 27.27026367 C13.6949585 27.24295166 12.52150879 27.21563965 11.3125 27.1875 C7.579375 27.125625 3.84625 27.06375 0 27 C0 18.09 0 9.18 0 0 Z " fill="#3C3C3C" transform="translate(224,311)"/>
<path d="M0 0 C3.91641711 -0.11618764 7.83239101 -0.18724654 11.75 -0.25 C13.41675781 -0.30027344 13.41675781 -0.30027344 15.1171875 -0.3515625 C16.18710937 -0.36445313 17.25703125 -0.37734375 18.359375 -0.390625 C19.34389648 -0.41157227 20.32841797 -0.43251953 21.34277344 -0.45410156 C24.78364729 0.13391988 25.93451252 1.22510444 28 4 C28.45410156 6.10644531 28.45410156 6.10644531 28.390625 8.328125 C28.37128906 9.52695312 28.37128906 9.52695312 28.3515625 10.75 C28.31804687 11.575 28.28453125 12.4 28.25 13.25 C28.23195313 14.09046875 28.21390625 14.9309375 28.1953125 15.796875 C28.14830798 17.86507395 28.07656724 19.93268441 28 22 C23.72929442 22.08692074 19.45881542 22.14036515 15.1875 22.1875 C13.36508789 22.22520508 13.36508789 22.22520508 11.50585938 22.26367188 C9.76079102 22.27817383 9.76079102 22.27817383 7.98046875 22.29296875 C6.90692139 22.3086792 5.83337402 22.32438965 4.72729492 22.34057617 C2 22 2 22 0.15112305 20.6027832 C-1.28120968 18.60845354 -1.4027219 17.43952715 -1.375 15 C-1.38273437 14.319375 -1.39046875 13.63875 -1.3984375 12.9375 C-0.87458183 10.39012339 -0.02919158 9.60467921 2 8 C4.17651367 7.65942383 4.17651367 7.65942383 6.66796875 7.70703125 C7.56064453 7.71669922 8.45332031 7.72636719 9.37304688 7.73632812 C10.76620117 7.7740332 10.76620117 7.7740332 12.1875 7.8125 C13.12787109 7.82603516 14.06824219 7.83957031 15.03710938 7.85351562 C17.35865038 7.88886904 19.67903653 7.93821326 22 8 C22 7.01 22 6.02 22 5 C15.4 5 8.8 5 2 5 C1.34 3.35 0.68 1.7 0 0 Z " fill="#393939" transform="translate(329,316)"/>
<path d="M0 0 C3.91641711 -0.11618764 7.83239101 -0.18724654 11.75 -0.25 C13.41675781 -0.30027344 13.41675781 -0.30027344 15.1171875 -0.3515625 C16.18710938 -0.36445313 17.25703125 -0.37734375 18.359375 -0.390625 C19.34389648 -0.41157227 20.32841797 -0.43251953 21.34277344 -0.45410156 C24.78364729 0.13391988 25.93451252 1.22510444 28 4 C28.45410156 6.10644531 28.45410156 6.10644531 28.390625 8.328125 C28.37128906 9.52695312 28.37128906 9.52695312 28.3515625 10.75 C28.31804687 11.575 28.28453125 12.4 28.25 13.25 C28.23195312 14.09046875 28.21390625 14.9309375 28.1953125 15.796875 C28.14830798 17.86507395 28.07656724 19.93268441 28 22 C23.54178834 22.08674429 19.08379196 22.14030513 14.625 22.1875 C13.35398438 22.21263672 12.08296875 22.23777344 10.7734375 22.26367188 C9.56171875 22.27333984 8.35 22.28300781 7.1015625 22.29296875 C5.98088379 22.3086792 4.86020508 22.32438965 3.70556641 22.34057617 C2.81272949 22.22818604 1.91989258 22.1157959 1 22 C-0.96055709 19.05916436 -1.31214545 18.31872048 -1.375 15 C-1.40335938 14.319375 -1.43171875 13.63875 -1.4609375 12.9375 C-1 11 -1 11 0.4140625 9.26171875 C4.43733956 7.29869988 8.34163323 7.68552341 12.75 7.8125 C13.63816406 7.82603516 14.52632812 7.83957031 15.44140625 7.85351562 C17.62822578 7.88878691 19.81379966 7.93807248 22 8 C22 7.01 22 6.02 22 5 C15.4 5 8.8 5 2 5 C1.34 3.35 0.68 1.7 0 0 Z " fill="#3F4040" transform="translate(149,316)"/>
<path d="M0 0 C4.62746206 -0.09193633 9.25174608 -0.17153193 13.87939453 -0.21972656 C15.45274604 -0.2398188 17.02602308 -0.26709799 18.59912109 -0.30175781 C20.86314272 -0.35038494 23.12617573 -0.37299135 25.390625 -0.390625 C26.09181458 -0.41127014 26.79300415 -0.43191528 27.51544189 -0.45318604 C30.85637886 -0.45471451 32.70486296 -0.21118172 35.45117188 1.75390625 C37.16837864 4.24418088 37.47583887 5.34563956 37.390625 8.328125 C37.37773437 9.12734375 37.36484375 9.9265625 37.3515625 10.75 C37.31804687 11.575 37.28453125 12.4 37.25 13.25 C37.23195312 14.09046875 37.21390625 14.9309375 37.1953125 15.796875 C37.14830798 17.86507395 37.07656724 19.93268441 37 22 C35.02 22 33.04 22 31 22 C31 16.39 31 10.78 31 5 C28.03 5 25.06 5 22 5 C22 10.61 22 16.22 22 22 C20.02 22 18.04 22 16 22 C15.67 16.72 15.34 11.44 15 6 C12.36 5.67 9.72 5.34 7 5 C7 10.61 7 16.22 7 22 C4.69 22 2.38 22 0 22 C0 14.74 0 7.48 0 0 Z " fill="#434343" transform="translate(182,316)"/>
<path d="M0 0 C0 24.09 0 48.18 0 73 C-19.14 73 -38.28 73 -58 73 C-58 56.17 -58 39.34 -58 22 C-56.68 21.67 -55.36 21.34 -54 21 C-54.33 21.99 -54.66 22.98 -55 24 C-55.08687799 25.54970448 -55.1176866 27.10289707 -55.11352539 28.6550293 C-55.11340454 29.60889526 -55.11328369 30.56276123 -55.11315918 31.54553223 C-55.10804321 32.54499878 -55.10292725 33.54446533 -55.09765625 34.57421875 C-55.09664917 35.49513306 -55.09564209 36.41604736 -55.09460449 37.36486816 C-55.08937152 40.8057581 -55.07541026 44.2466303 -55.0625 47.6875 C-55.041875 55.380625 -55.02125 63.07375 -55 71 C-37.51 71 -20.02 71 -2 71 C-2.01160156 66.27042969 -2.02320313 61.54085937 -2.03515625 56.66796875 C-2.04026506 53.67382676 -2.04507898 50.67969013 -2.04882812 47.68554688 C-2.05480865 42.93187343 -2.06188792 38.17821922 -2.07543945 33.42456055 C-2.08629527 29.59258628 -2.09228257 25.76063264 -2.09487724 21.92864418 C-2.09672662 20.46579984 -2.10033792 19.00295665 -2.10573006 17.54012108 C-2.11297622 15.49311243 -2.11398943 13.44618931 -2.11352539 11.39916992 C-2.115746 10.23334885 -2.11796661 9.06752777 -2.12025452 7.86637878 C-2 5 -2 5 -1 2 C-3.31 2.33 -5.62 2.66 -8 3 C-3.5 0 -3.5 0 0 0 Z " fill="#3CA757" transform="translate(246,220)"/>
<path d="M0 0 C19.14 0 38.28 0 58 0 C58 19.47 58 38.94 58 59 C53.6906014 58.2817669 50.83675965 57.69268808 47 56 C50.36541838 54.91825838 51.29847322 55.07461831 55 56 C55.33 38.18 55.66 20.36 56 2 C38.18 2 20.36 2 2 2 C2.33 13.88 2.66 25.76 3 38 C2.01 37.67 1.02 37.34 0 37 C0 24.79 0 12.58 0 0 Z " fill="#43A35A" transform="translate(255,145)"/>
<path d="M0 0 C1.98 0 3.96 0 6 0 C6 5.61 6 11.22 6 17 C11.28 17 16.56 17 22 17 C22 11.39 22 5.78 22 0 C23.65 0 25.3 0 27 0 C27.08710289 3.10398978 27.14042309 6.20766548 27.1875 9.3125 C27.21263672 10.19357422 27.23777344 11.07464844 27.26367188 11.98242188 C27.27333984 12.82998047 27.28300781 13.67753906 27.29296875 14.55078125 C27.3086792 15.33106689 27.32438965 16.11135254 27.34057617 16.9152832 C27 19 27 19 25.78051758 20.75097656 C22.22602313 23.24443516 17.68999898 22.46835006 13.5 22.4375 C12.05560547 22.4674707 12.05560547 22.4674707 10.58203125 22.49804688 C9.65777344 22.49740234 8.73351562 22.49675781 7.78125 22.49609375 C6.5137793 22.49887329 6.5137793 22.49887329 5.22070312 22.50170898 C3 22 3 22 1.21948242 20.23950195 C-0.11840062 17.78256478 -0.35233864 16.44246971 -0.29296875 13.671875 C-0.28330078 12.87265625 -0.27363281 12.0734375 -0.26367188 11.25 C-0.23853516 10.425 -0.21339844 9.6 -0.1875 8.75 C-0.17396484 7.90953125 -0.16042969 7.0690625 -0.14648438 6.203125 C-0.11123464 4.13514062 -0.0574302 2.06748729 0 0 Z " fill="#545555" transform="translate(255,316)"/>
<path d="M0 0 C0.99 0.33 1.98 0.66 3 1 C2.34 1 1.68 1 1 1 C1 34.33 1 67.66 1 102 C19.81 102 38.62 102 58 102 C58 102.33 58 102.66 58 103 C50.45512064 103.15361109 42.91015145 103.3017928 35.36502934 103.4429636 C31.86186429 103.50868092 28.35875701 103.5762974 24.85571289 103.64819336 C20.83228789 103.7306875 16.80874879 103.80503044 12.78515625 103.87890625 C11.52163834 103.90594131 10.25812042 103.93297638 8.95631409 103.96083069 C7.795186 103.98092697 6.63405792 104.00102325 5.43774414 104.02172852 C4.40960098 104.04171402 3.38145782 104.06169952 2.32215881 104.08229065 C0 104 0 104 -1 103 C-1.10069779 99.83923656 -1.13614023 96.70027973 -1.12939453 93.5390625 C-1.13114685 92.54565857 -1.13289917 91.55225464 -1.13470459 90.52874756 C-1.13912511 87.22748088 -1.13618441 83.92626727 -1.1328125 80.625 C-1.13348548 78.34195953 -1.13445546 76.05891913 -1.13571167 73.77587891 C-1.13718891 68.98404256 -1.13503323 64.19222481 -1.13037109 59.40039062 C-1.1246738 53.24283365 -1.12795266 47.08532026 -1.13394356 40.92776489 C-1.13754845 36.21134103 -1.13641091 31.49492759 -1.13381577 26.77850342 C-1.1331463 24.5073852 -1.1339756 22.23626606 -1.13629532 19.96514893 C-1.13882067 16.79705278 -1.1349829 13.62902828 -1.12939453 10.4609375 C-1.13141876 9.51232849 -1.13344299 8.56371948 -1.13552856 7.58636475 C-1.11426224 1.11426224 -1.11426224 1.11426224 0 0 Z " fill="#D9FDE7" transform="translate(254,191)"/>
<path d="M0 0 C1.98 0 3.96 0 6 0 C6 7.26 6 14.52 6 22 C10.95 22 15.9 22 21 22 C21.33 23.65 21.66 25.3 22 27 C14.74 27 7.48 27 0 27 C0 18.09 0 9.18 0 0 Z " fill="#353535" transform="translate(302,311)"/>
<path d="M0 0 C1.98 0 3.96 0 6 0 C6 1.98 6 3.96 6 6 C10.95 6 15.9 6 21 6 C20.67 7.32 20.34 8.64 20 10 C15.38 10 10.76 10 6 10 C6 14.29 6 18.58 6 23 C6.66 23.33 7.32 23.66 8 24 C7.34 24 6.68 24 6 24 C6 24.66 6 25.32 6 26 C4.02 26 2.04 26 0 26 C0 17.42 0 8.84 0 0 Z " fill="#323232" transform="translate(224,311)"/>
<path d="M0 0 C0.33 0 0.66 0 1 0 C1 5.94 1 11.88 1 18 C-3.2712088 18.08070164 -7.5409033 18.14036204 -11.8125 18.1875 C-13.63491211 18.22520508 -13.63491211 18.22520508 -15.49414062 18.26367188 C-17.23920898 18.27817383 -17.23920898 18.27817383 -19.01953125 18.29296875 C-20.09307861 18.3086792 -21.16662598 18.32438965 -22.27270508 18.34057617 C-25 18 -25 18 -26.84887695 16.6027832 C-28.28120968 14.60845354 -28.4027219 13.43952715 -28.375 11 C-28.38273437 10.319375 -28.39046875 9.63875 -28.3984375 8.9375 C-27.87458183 6.39012339 -27.02919158 5.60467921 -25 4 C-22.82348633 3.65942383 -22.82348633 3.65942383 -20.33203125 3.70703125 C-19.43935547 3.71669922 -18.54667969 3.72636719 -17.62695312 3.73632812 C-16.23379883 3.7740332 -16.23379883 3.7740332 -14.8125 3.8125 C-13.87212891 3.82603516 -12.93175781 3.83957031 -11.96289062 3.85351562 C-9.64134962 3.88886904 -7.32096347 3.93821326 -5 4 C-5 4.33 -5 4.66 -5 5 C-14.405 5.495 -14.405 5.495 -24 6 C-23.67 6.66 -23.34 7.32 -23 8 C-17.06 8.33 -11.12 8.66 -5 9 C-5 10.65 -5 12.3 -5 14 C-6.60681641 14.09087891 -6.60681641 14.09087891 -8.24609375 14.18359375 C-9.64324391 14.26798537 -11.04037857 14.35263406 -12.4375 14.4375 C-13.49807617 14.49647461 -13.49807617 14.49647461 -14.58007812 14.55664062 C-18.08690419 14.47624438 -18.08690419 14.47624438 -21 16 C-14.07 16.33 -7.14 16.66 0 17 C0 11.39 0 5.78 0 0 Z " fill="#525353" transform="translate(356,320)"/>
<path d="M0 0 C2.31243792 -0.02685412 4.6249627 -0.04632841 6.9375 -0.0625 C8.22527344 -0.07410156 9.51304687 -0.08570313 10.83984375 -0.09765625 C14 0 14 0 15 1 C15.09851171 2.83115883 15.12972629 4.66619933 15.125 6.5 C15.12757813 7.5003125 15.13015625 8.500625 15.1328125 9.53125 C15 12 15 12 14 13 C11.83519203 13.0989294 9.66706215 13.129711 7.5 13.125 C6.3140625 13.12757813 5.128125 13.13015625 3.90625 13.1328125 C1 13 1 13 0 12 C-0.07244053 9.98035801 -0.08377188 7.95832876 -0.0625 5.9375 C-0.05347656 4.83277344 -0.04445313 3.72804688 -0.03515625 2.58984375 C-0.02355469 1.73519531 -0.01195312 0.88054687 0 0 Z " fill="#E5E5E5" transform="translate(368,321)"/>
<path d="M0 0 C4.62 0 9.24 0 14 0 C14 3.96 14 7.92 14 12 C9.38 12 4.76 12 0 12 C0 8.04 0 4.08 0 0 Z " fill="#F6F6F6" transform="translate(230,321)"/>
<path d="M0 0 C1.65 0 3.3 0 5 0 C5.08710289 3.10398978 5.14042309 6.20766548 5.1875 9.3125 C5.21263672 10.19357422 5.23777344 11.07464844 5.26367188 11.98242188 C5.27333984 12.82998047 5.28300781 13.67753906 5.29296875 14.55078125 C5.3086792 15.33106689 5.32438965 16.11135254 5.34057617 16.9152832 C5 19 5 19 3.73242188 20.7734375 C1.58481045 22.29395607 0.58538726 22.28901699 -2.01171875 22.07421875 C-2.76904297 22.01943359 -3.52636719 21.96464844 -4.30664062 21.90820312 C-5.09232422 21.83537109 -5.87800781 21.76253906 -6.6875 21.6875 C-7.48478516 21.62626953 -8.28207031 21.56503906 -9.10351562 21.50195312 C-11.07016953 21.34886031 -13.03528989 21.17629291 -15 21 C-15.33 20.34 -15.66 19.68 -16 19 C-12.83754459 17.9458482 -10.13051782 17.68724328 -6.8125 17.4375 C-3.9353125 17.2209375 -3.9353125 17.2209375 -1 17 C-0.67 11.39 -0.34 5.78 0 0 Z " fill="#323534" transform="translate(277,316)"/>
<path d="M0 0 C2.62527189 -0.05382106 5.24944713 -0.09358313 7.875 -0.125 C8.62136719 -0.14175781 9.36773437 -0.15851563 10.13671875 -0.17578125 C12.09194461 -0.1933959 14.04742021 -0.10320189 16 0 C18 2 18 2 18 6 C14.81175432 7.59412284 11.37103338 7.10174735 7.875 7.0625 C7.12089844 7.05798828 6.36679688 7.05347656 5.58984375 7.04882812 C3.72652873 7.03703499 1.86325445 7.01909942 0 7 C0 4.69 0 2.38 0 0 Z " fill="#F1F1F1" transform="translate(119,326)"/>
<path d="M0 0 C0.78552246 0.01047363 1.57104492 0.02094727 2.38037109 0.03173828 C3.23115234 0.03818359 4.08193359 0.04462891 4.95849609 0.05126953 C6.29267578 0.07640625 6.29267578 0.07640625 7.65380859 0.10205078 C8.99958984 0.11558594 8.99958984 0.11558594 10.37255859 0.12939453 C12.59157445 0.15300108 14.81005937 0.18592768 17.02880859 0.22705078 C17.02880859 1.21705078 17.02880859 2.20705078 17.02880859 3.22705078 C17.68880859 3.55705078 18.34880859 3.88705078 19.02880859 4.22705078 C10.61380859 4.72205078 10.61380859 4.72205078 2.02880859 5.22705078 C1.36880859 6.54705078 0.70880859 7.86705078 0.02880859 9.22705078 C-1.29119141 9.22705078 -2.61119141 9.22705078 -3.97119141 9.22705078 C-4.09619141 5.85205078 -4.09619141 5.85205078 -3.97119141 2.22705078 C-1.97119141 0.22705078 -1.97119141 0.22705078 0 0 Z " fill="#323433" transform="translate(151.97119140625,324.77294921875)"/>
<path d="M0 0 C4.95 0 9.9 0 15 0 C15.33 1.65 15.66 3.3 16 5 C15 6 15 6 11.62109375 6.09765625 C10.22652923 6.09098369 8.83198257 6.07902532 7.4375 6.0625 C6.72658203 6.05798828 6.01566406 6.05347656 5.28320312 6.04882812 C3.52209987 6.03700864 1.76103964 6.01907263 0 6 C0 4.02 0 2.04 0 0 Z " fill="#F9F9F9" transform="translate(119,315)"/>
<path d="M0 0 C2.77141717 -0.08089542 5.54047819 -0.14044062 8.3125 -0.1875 C9.09818359 -0.21263672 9.88386719 -0.23777344 10.69335938 -0.26367188 C11.45068359 -0.27333984 12.20800781 -0.28300781 12.98828125 -0.29296875 C14.03302612 -0.31653442 14.03302612 -0.31653442 15.09887695 -0.34057617 C17.54489783 0.09761557 18.42702086 1.13437358 20 3 C15.71898513 6.23362094 12.31759739 6.2422378 7.1875 5.6875 C6.49462891 5.62626953 5.80175781 5.56503906 5.08789062 5.50195312 C3.39050178 5.34977344 1.69498451 5.17696065 0 5 C0 3.35 0 1.7 0 0 Z " fill="#545454" transform="translate(119,310)"/>
<path d="M0 0 C2.31 0 4.62 0 7 0 C6.67 26.4 6.34 52.8 6 80 C5.67 80 5.34 80 5 80 C5 54.26 5 28.52 5 2 C3.35 1.67 1.7 1.34 0 1 C0 0.67 0 0.34 0 0 Z " fill="#DDFDE6" transform="translate(308,212)"/>
<path d="M0 0 C1.65 0 3.3 0 5 0 C5 5.28 5 10.56 5 16 C4.01 16.33 3.02 16.66 2 17 C2 16.34 2 15.68 2 15 C1.34 15 0.68 15 0 15 C0 10.05 0 5.1 0 0 Z " fill="#363636" transform="translate(256,317)"/>
<path d="M0 0 C5.61 0 11.22 0 17 0 C17 1.32 17 2.64 17 4 C11.06 4 5.12 4 -1 4 C-0.67 2.68 -0.34 1.36 0 0 Z " fill="#FCFDFD" transform="translate(334,329)"/>
<path d="M0 0 C5.61 0 11.22 0 17 0 C17 1.32 17 2.64 17 4 C11.06 4 5.12 4 -1 4 C-0.67 2.68 -0.34 1.36 0 0 Z " fill="#EFF2F1" transform="translate(154,329)"/>
<path d="M0 0 C6.6 0 13.2 0 20 0 C20 0.99 20 1.98 20 3 C13.4 3.33 6.8 3.66 0 4 C0 2.68 0 1.36 0 0 Z " fill="#EEEFEF" transform="translate(151,321)"/>
<path d="M0 0 C0.33 0 0.66 0 1 0 C1 11.55 1 23.1 1 35 C-2.73069283 34.25386143 -5.57404607 33.46826597 -9 32 C-5.63458162 30.91825838 -4.70152678 31.07461831 -1 32 C-0.67 21.44 -0.34 10.88 0 0 Z " fill="#3AA252" transform="translate(311,169)"/>
<path d="M0 0 C0.33 1.32 0.66 2.64 1 4 C-4.28 4 -9.56 4 -15 4 C-15 3.01 -15 2.02 -15 1 C-13.06263299 0.83179449 -11.12510094 0.66548905 -9.1875 0.5 C-7.56908203 0.36078125 -7.56908203 0.36078125 -5.91796875 0.21875 C-3 0 -3 0 0 0 Z " fill="#333333" transform="translate(385,333)"/>
<path d="M0 0 C0.94101563 0.00322266 1.88203125 0.00644531 2.8515625 0.00976562 C3.83640625 0.01814453 4.82125 0.02652344 5.8359375 0.03515625 C6.82851562 0.03966797 7.82109375 0.04417969 8.84375 0.04882812 C11.2995391 0.0606348 13.75520854 0.07710225 16.2109375 0.09765625 C16.2109375 0.42765625 16.2109375 0.75765625 16.2109375 1.09765625 C15.36789063 1.14664062 14.52484375 1.195625 13.65625 1.24609375 C12.56054688 1.32085937 11.46484375 1.395625 10.3359375 1.47265625 C8.70011719 1.57707031 8.70011719 1.57707031 7.03125 1.68359375 C4.08047276 1.83019116 4.08047276 1.83019116 2.2109375 4.09765625 C-0.47745635 4.36757531 -3.08048186 4.18502982 -5.7890625 4.09765625 C-6.1190625 3.10765625 -6.4490625 2.11765625 -6.7890625 1.09765625 C-4.33631109 -0.12871945 -2.7384844 -0.01649689 0 0 Z " fill="#505352" transform="translate(154.7890625,332.90234375)"/>
<path d="M0 0 C4.62 0 9.24 0 14 0 C14 0.99 14 1.98 14 3 C6.08 3.495 6.08 3.495 -2 4 C-1.34 2.68 -0.68 1.36 0 0 Z " fill="#313131" transform="translate(119,322)"/>
<path d="M0 0 C0.87118047 2.61354142 1.30836136 4.78595455 1.625 7.5 C1.72039062 8.2734375 1.81578125 9.046875 1.9140625 9.84375 C2 12 2 12 1 15 C-0.32 14.67 -1.64 14.34 -3 14 C-3.25 7.375 -3.25 7.375 -1 4 C-1.66 4 -2.32 4 -3 4 C-2 2 -2 2 0 0 Z " fill="#2F3130" transform="translate(217,322)"/>
<path d="M0 0 C6.93 0.495 6.93 0.495 14 1 C14 1.99 14 2.98 14 4 C9.38 4 4.76 4 0 4 C0 2.68 0 1.36 0 0 Z " fill="#303030" transform="translate(120,310)"/>
<path d="M0 0 C2.60478883 -0.0809313 5.20706653 -0.14045434 7.8125 -0.1875 C8.55048828 -0.21263672 9.28847656 -0.23777344 10.04882812 -0.26367188 C15.54974762 -0.33834499 15.54974762 -0.33834499 18.01171875 1.51171875 C18.50091797 2.24841797 18.50091797 2.24841797 19 3 C17.68 3.33 16.36 3.66 15 4 C15 8.29 15 12.58 15 17 C14.67 17 14.34 17 14 17 C14 12.05 14 7.1 14 2 C7.07 1.505 7.07 1.505 0 1 C0 0.67 0 0.34 0 0 Z " fill="#595959" transform="translate(230,316)"/>
<path d="M0 0 C0 1.98 0 3.96 0 6 C-1.98 6.66 -3.96 7.32 -6 8 C-6 6.02 -6 4.04 -6 2 C-1.125 0 -1.125 0 0 0 Z " fill="#44A15B" transform="translate(119,304)"/>
<path d="M0 0 C0.33 0.66 0.66 1.32 1 2 C1.66 2 2.32 2 3 2 C2.73958333 4.01822917 2.47916667 6.03645833 2.21875 8.0546875 C1.9627515 10.00498344 1.9627515 10.00498344 2 12 C2.99 12.33 3.98 12.66 5 13 C5.33 12.01 5.66 11.02 6 10 C6 11.32 6 12.64 6 14 C4.02 14 2.04 14 0 14 C0 9.38 0 4.76 0 0 Z " fill="#404141" transform="translate(213,324)"/>
<path d="M0 0 C5.61 0 11.22 0 17 0 C17 0.33 17 0.66 17 1 C12.05 1 7.1 1 2 1 C2 1.66 2 2.32 2 3 C1.01 3.33 0.02 3.66 -1 4 C-0.67 2.68 -0.34 1.36 0 0 Z " fill="#D7D8D8" transform="translate(334,329)"/>
<path d="M0 0 C1.43931117 0.45261358 2.87638999 0.91232979 4.3125 1.375 C5.11300781 1.63023437 5.91351563 1.88546875 6.73828125 2.1484375 C9 3 9 3 12 5 C8.37 4.67 4.74 4.34 1 4 C0.67 2.68 0.34 1.36 0 0 Z " fill="#40A658" transform="translate(276,200)"/>
<path d="M0 0 C1.43931117 0.45261358 2.87638999 0.91232979 4.3125 1.375 C5.11300781 1.63023437 5.91351563 1.88546875 6.73828125 2.1484375 C9 3 9 3 12 5 C7.24792529 5.43200679 4.21789302 3.98489083 0 2 C0 1.34 0 0.68 0 0 Z " fill="#D2F6DC" transform="translate(255,182)"/>
<path d="M0 0 C2.64 0 5.28 0 8 0 C5.3144406 2.6855594 2.62378672 3.06049974 -1 4 C-0.67 2.68 -0.34 1.36 0 0 Z " fill="#3EA85B" transform="translate(211,220)"/>
<path d="M0 0 C0 0.66 0 1.32 0 2 C-4.455 3.485 -4.455 3.485 -9 5 C-9 4.34 -9 3.68 -9 3 C-2.25 0 -2.25 0 0 0 Z " fill="#E1FADF" transform="translate(246,218)"/>
<path d="M0 0 C4.21912747 0.4794463 6.79663178 1.16625119 10 4 C5.74357648 4.3648363 3.46444495 3.47460354 0 1 C0 0.67 0 0.34 0 0 Z " fill="#DFF8E5" transform="translate(271,189)"/>
</svg>
