<svg xmlns="http://www.w3.org/2000/svg" viewBox="-1 0 314 65">
<path d="M71.4 47.1c-12-12.7-20.8-28-25.6-44.8-.4-1.4-1.6-2.3-3-2.3H29.5c-1.4 0-2.6 1-3 2.3C21.7 19.1 12.9 34.4.9 47.1c-1 1-1.2 2.6-.5 3.8L7 62.4c.7 1.2 2.1 1.8 3.5 1.5 8.4-2.1 17-3.1 25.6-3.1 8.6 0 17.3 1 25.6 3.1 1.4.4 2.8-.3 3.5-1.5l6.6-11.6c.7-1.2.5-2.7-.4-3.7zm-14.7 9.7l-46.6-10c-.2-.1-.4-.3-.3-.5 0-.1 0-.1.1-.2l31.9-35.8c.1-.2.4-.2.5 0l.1.1 14.8 45.8c.1.2-.1.5-.3.5-.1.1-.1.1-.2.1z" fill="#fa4616" transform="translate(-.002)"/>
<path class="st1" fill="#005776" d="M18.5 0L0 42.2h8.6l4.2-9.9h18.5l4.2 9.9h8.8L25.9 0h-7.4zm-2.6 24.9l6.2-14.3 6.2 14.3H15.9zM58.9.3h-8.3v41.9h29.8v-7.7H58.9V.3zM129.4 0l-18.5 42.2h8.6l4.2-9.9h18.5l4.2 9.9h8.8L136.7 0h-7.3zm-2.6 24.9l6.2-14.3 6.2 14.3h-12.4zM162.2.3h8.3v41.9h-8.3zM207.3 26.5c6-1.9 9.4-6.5 9.4-12.7 0-8.3-6-13.5-15.7-13.5h-18.8v41.9h8.3V28h8.1l10.1 14.3h9.9l-11.3-15.8zM190.5 8h9.9c5.1 0 7.9 2.2 7.9 6.3 0 3.9-3 6.3-7.9 6.3h-9.9V8zM77.9.3v8h12.9v34h8.5v-34h12.9v-8H77.9z" transform="translate(93.473 10.862)" />
</svg>