<svg version="1.1" id="Layer_1" xmlns="http://www.w3.org/2000/svg" xmlns:xlink="http://www.w3.org/1999/xlink" x="0px" y="0px"
	 width="100%" viewBox="0 0 2560 1195" enable-background="new 0 0 2560 1195" xml:space="preserve">
<path fill="#FFFFFF" opacity="1.000000" stroke="none" 
	d="
M1870.000000,1196.000000 
	C1246.666626,1196.000000 623.833313,1196.000000 1.000000,1196.000000 
	C1.000000,797.666687 1.000000,399.333344 1.000000,1.000000 
	C854.333313,1.000000 1707.666626,1.000000 2561.000000,1.000000 
	C2561.000000,399.333344 2561.000000,797.666687 2561.000000,1196.000000 
	C2330.833252,1196.000000 2100.666748,1196.000000 1870.000000,1196.000000 
M1606.533813,725.973511 
	C1606.419189,730.842285 1608.660889,732.120850 1613.550781,732.103088 
	C1669.378296,731.899902 1725.207031,732.071228 1781.034424,731.842468 
	C1788.277710,731.812805 1795.718872,730.870056 1802.717651,729.022156 
	C1829.521606,721.945068 1847.770264,699.049316 1847.776733,672.893860 
	C1847.818359,503.909393 1847.797119,334.924896 1847.794556,165.940414 
	C1847.794434,151.869125 1843.187744,139.438614 1834.022461,128.829681 
	C1819.691895,112.241875 1801.161011,105.097816 1779.533081,105.098328 
	C1422.565918,105.106712 1065.598633,105.099724 708.631409,105.141762 
	C702.984497,105.142426 697.291382,105.356041 691.698547,106.079079 
	C659.967651,110.181252 636.078857,137.430359 636.081360,169.274536 
	C636.083740,199.938385 636.078308,230.602234 636.078430,261.266083 
	C636.078796,397.586884 636.127930,533.907776 636.014221,670.228455 
	C636.001343,685.675781 640.661316,699.065857 651.292358,710.206055 
	C665.262451,724.845276 682.654358,731.878113 702.743408,731.920105 
	C761.237793,732.042236 819.732605,731.972900 878.227234,731.966553 
	C879.699158,731.966370 881.171082,731.825317 882.944946,731.734497 
	C883.366577,729.416748 883.771240,727.315613 884.129272,725.206665 
	C892.313171,676.995972 900.489807,628.783936 908.672546,580.572998 
	C916.106628,536.772705 923.532410,492.970978 931.011841,449.178406 
	C931.568359,445.920105 930.853699,443.760925 928.025024,441.572937 
	C907.869385,425.982452 887.893494,410.159668 867.855042,394.417694 
	C826.335266,361.800110 784.810242,329.189301 743.293030,296.568420 
	C738.276062,292.626465 733.294189,288.639771 728.296082,284.673798 
	C728.430786,284.276306 728.565552,283.878845 728.700317,283.481354 
	C748.048889,283.481354 767.397522,283.481354 787.307495,283.481354 
	C787.307495,253.401459 787.307495,224.009583 787.307495,194.610962 
	C818.457886,194.610962 849.026062,194.610962 880.073364,194.610962 
	C880.073364,224.410339 880.073364,253.819016 880.073364,283.473480 
	C881.503235,283.539703 882.481323,283.624603 883.459473,283.624664 
	C955.619385,283.629913 1027.779297,283.606079 1099.939087,283.703552 
	C1103.042114,283.707764 1104.749634,282.576355 1106.310181,280.118713 
	C1112.444824,270.456848 1118.726929,260.888611 1125.048340,251.140686 
	C1136.364136,255.847900 1147.190063,260.546539 1158.183350,264.813477 
	C1161.800781,266.217529 1165.849487,267.186371 1169.704834,267.198517 
	C1218.366577,267.351990 1267.029297,267.378693 1315.690552,267.161682 
	C1320.681030,267.139465 1325.866333,265.910614 1330.607788,264.239288 
	C1340.493042,260.754852 1350.195557,256.726257 1359.856201,252.644501 
	C1362.856934,251.376572 1364.459351,251.651001 1366.340576,254.484833 
	C1372.142334,263.223846 1378.357178,271.687592 1384.243896,280.371887 
	C1385.923706,282.850159 1387.825562,283.729462 1390.817505,283.725677 
	C1461.644043,283.635956 1532.470703,283.647064 1603.297363,283.625519 
	C1605.069702,283.625000 1606.842041,283.463593 1609.112305,283.352936 
	C1609.112305,253.426712 1609.112305,224.025421 1609.112305,194.562347 
	C1640.717407,194.562347 1671.793579,194.562347 1703.422363,194.562347 
	C1703.422363,224.295578 1703.422363,253.702728 1703.422363,283.849792 
	C1723.255005,283.849792 1742.545654,283.849792 1762.980835,283.849792 
	C1761.205688,285.376038 1760.494995,286.036163 1759.734985,286.633484 
	C1694.128174,338.200653 1628.530518,389.779755 1562.864502,441.271515 
	C1559.904175,443.592834 1558.841431,445.628418 1559.622681,449.610016 
	C1562.343506,463.478821 1564.470093,477.464111 1566.827637,491.404266 
	C1574.704468,537.981018 1582.590454,584.556335 1590.459595,631.134399 
	C1595.753662,662.470276 1601.025146,693.809998 1606.533813,725.973511 
M844.500000,915.930725 
	C925.566528,915.930725 1006.633057,915.930725 1088.196289,915.930725 
	C1088.196289,974.301880 1088.196289,1031.862915 1088.196289,1089.415771 
	C1110.920776,1089.415771 1133.143555,1089.415771 1155.865234,1089.415771 
	C1155.865234,1031.452759 1155.865234,973.886047 1155.865234,915.775269 
	C1187.585083,915.775269 1218.805908,915.775269 1249.871826,915.775269 
	C1249.871826,897.643555 1249.871826,880.061218 1249.871826,862.115417 
	C1248.380981,862.115417 1247.244751,862.115295 1246.108398,862.115479 
	C1090.620117,862.141785 935.131653,862.053467 779.644165,862.402832 
	C766.606567,862.432129 753.342651,864.369263 740.593079,867.238220 
	C718.496094,872.210632 702.955566,885.336243 697.184631,908.042664 
	C692.456299,926.647034 692.944763,945.400757 697.294250,963.994385 
	C701.514282,982.034241 713.237244,993.202698 731.145447,996.688477 
	C742.830688,998.963013 754.916260,999.960754 766.838501,1000.093994 
	C804.164368,1000.511230 841.497864,1000.225647 878.828308,1000.276306 
	C882.984802,1000.281982 887.171692,1000.452820 891.290527,1000.973755 
	C900.183655,1002.098633 903.946106,1005.763428 904.820801,1013.640076 
	C906.014343,1024.388062 902.815552,1031.278931 894.402344,1033.797485 
	C889.389038,1035.298218 883.933777,1035.901245 878.674805,1035.913574 
	C818.846252,1036.054688 759.017334,1036.003784 699.188477,1036.004150 
	C697.244690,1036.004272 695.300842,1036.004272 693.189880,1036.004272 
	C693.189880,1054.155029 693.189880,1071.721558 693.189880,1089.567261 
	C694.917114,1089.655762 696.380066,1089.796265 697.842957,1089.796509 
	C759.505005,1089.805786 821.168823,1090.057983 882.827881,1089.624268 
	C898.582642,1089.513428 914.514771,1088.346191 930.023865,1085.678467 
	C953.891907,1081.572998 969.759644,1067.497925 974.543762,1043.058105 
	C978.205078,1024.354614 977.751709,1005.544739 972.791077,987.069580 
	C968.532471,971.209351 958.477051,960.346863 942.467834,956.223328 
	C933.507690,953.915466 924.132080,952.177551 914.921021,952.066528 
	C874.430115,951.578369 833.930786,951.819092 793.434998,951.671753 
	C788.466675,951.653687 783.409790,951.345886 778.554260,950.372559 
	C769.997742,948.657227 766.186218,943.656189 765.849670,934.900879 
	C765.422363,923.786987 769.547668,918.508911 780.563782,916.688599 
	C784.478760,916.041748 788.519348,915.978271 792.503967,915.960999 
	C809.502380,915.887207 826.501282,915.930298 844.500000,915.930725 
M1083.494751,423.005585 
	C1136.789551,478.192291 1190.084473,533.379028 1243.672485,588.869385 
	C1320.626465,509.202240 1397.119873,430.012024 1473.970459,350.451904 
	C1443.639648,339.573151 1414.247192,328.841522 1384.671143,318.641876 
	C1380.575928,317.229614 1375.573853,318.446991 1370.577026,318.446991 
	C1372.681519,331.263214 1374.744019,343.823822 1376.845825,356.623322 
	C1374.919678,356.968689 1373.473633,357.272217 1372.014160,357.482666 
	C1360.469727,359.147552 1360.517334,359.134491 1358.703735,347.555634 
	C1357.170654,337.766815 1355.508179,327.998230 1353.792480,317.547974 
	C1345.151978,320.366211 1341.329834,314.717621 1337.085083,309.445435 
	C1329.878296,300.494537 1322.390503,291.770477 1315.103882,282.882965 
	C1313.114868,280.456848 1311.119751,278.987946 1307.620483,278.999115 
	C1262.788452,279.142395 1217.956055,279.128235 1173.123779,279.041016 
	C1170.102417,279.035126 1168.283936,279.927032 1166.699585,282.539795 
	C1160.309448,293.077362 1153.605469,303.424835 1147.236816,313.974915 
	C1145.501587,316.849426 1143.627808,318.605103 1140.150146,317.947113 
	C1135.795288,317.123138 1134.541138,319.234650 1133.986572,323.324402 
	C1132.405518,334.983551 1130.334961,346.576294 1128.390381,358.607697 
	C1122.786377,357.999329 1117.575684,357.433655 1112.023926,356.830963 
	C1114.164917,343.707306 1116.228149,331.059448 1118.477539,317.270447 
	C1112.279419,318.043671 1106.915405,317.761444 1102.266235,319.449005 
	C1074.572510,329.501526 1047.042603,340.005554 1019.464111,350.375244 
	C1018.166077,350.863342 1016.930237,351.516632 1015.172058,352.317810 
	C1038.104248,376.041016 1060.555786,399.266968 1083.494751,423.005585 
M1908.557739,879.939209 
	C1901.722778,875.918213 1895.238037,871.044373 1887.976318,868.062744 
	C1874.885986,862.687927 1860.750854,861.583069 1846.763306,861.422485 
	C1808.109619,860.978699 1769.447510,860.726501 1730.794189,861.052429 
	C1714.512817,861.189697 1698.107178,861.974121 1682.001099,864.213440 
	C1650.371094,868.611023 1633.784058,884.867371 1627.635620,916.202087 
	C1625.977051,924.654968 1625.170776,933.387329 1625.044922,942.007080 
	C1624.697388,965.830933 1624.755615,989.664612 1625.005371,1013.490723 
	C1625.083496,1020.953979 1625.842285,1028.476929 1627.042969,1035.849854 
	C1631.736938,1064.670776 1647.092041,1081.170776 1675.763550,1086.804199 
	C1688.439453,1089.294800 1701.532471,1090.548462 1714.457764,1090.717651 
	C1753.776978,1091.232300 1793.108765,1091.191895 1832.430664,1090.829712 
	C1845.380371,1090.710449 1858.416626,1089.650269 1871.233032,1087.782715 
	C1892.104736,1084.740967 1910.328613,1076.355469 1919.079224,1055.625977 
	C1923.091431,1046.121094 1926.341064,1035.539062 1926.623535,1025.353638 
	C1927.550781,991.909485 1927.569946,958.407288 1926.692993,924.960022 
	C1926.260498,908.462158 1921.296021,892.761414 1908.557739,879.939209 
M472.915710,920.573608 
	C457.842468,901.916992 442.823883,883.215454 427.591980,864.689331 
	C426.377045,863.211609 423.691956,862.232849 421.684174,862.222961 
	C390.855957,862.070496 360.026764,862.112793 329.197784,862.133484 
	C327.777069,862.134399 326.356506,862.358093 324.867676,862.483826 
	C324.867676,938.313782 324.867676,1013.734375 324.867676,1089.371338 
	C347.475922,1089.371338 369.815338,1089.371338 392.740051,1089.371338 
	C392.740051,1034.913818 392.740051,980.903442 392.740051,925.692200 
	C394.459717,927.509583 395.378052,928.376038 396.178040,929.340576 
	C439.562805,981.644653 482.957550,1033.940552 526.253723,1086.317871 
	C528.386230,1088.897583 530.540283,1089.880615 533.835144,1089.868408 
	C563.830444,1089.756714 593.826416,1089.804932 623.822144,1089.791382 
	C625.432922,1089.790649 627.043701,1089.655640 628.665771,1089.582397 
	C628.665771,1013.585144 628.665771,938.029968 628.665771,862.408569 
	C606.086548,862.408569 583.842712,862.408569 561.024292,862.408569 
	C561.024292,917.706299 561.024292,972.714478 561.024292,1029.297485 
	C531.131958,992.421631 502.239441,956.779236 472.915710,920.573608 
M1993.578125,862.113525 
	C1991.453857,862.113525 1989.329590,862.113525 1986.972900,862.113525 
	C1986.972900,938.161926 1986.972900,1013.724670 1986.972900,1089.501099 
	C2009.489258,1089.501099 2031.723145,1089.501099 2054.536621,1089.501099 
	C2054.536621,1034.996094 2054.536621,980.806519 2054.536621,925.463562 
	C2056.474121,927.583557 2057.625000,928.742188 2058.663818,929.993774 
	C2101.749512,981.902222 2144.857666,1033.792236 2187.820068,1085.802490 
	C2190.349854,1088.865112 2192.865723,1089.899658 2196.688965,1089.881714 
	C2226.187256,1089.743042 2255.686523,1089.802734 2285.185303,1089.801025 
	C2286.960693,1089.800903 2288.735840,1089.801025 2290.643066,1089.801025 
	C2290.643066,1013.593872 2290.643066,938.050171 2290.643066,862.409912 
	C2268.031982,862.409912 2245.783936,862.409912 2223.029053,862.409912 
	C2223.029053,917.738403 2223.029053,972.775879 2223.029053,1028.951538 
	C2221.495605,1027.316040 2220.710449,1026.577515 2220.038330,1025.747192 
	C2176.865234,972.399780 2133.674316,919.066528 2090.614990,865.627563 
	C2088.457764,862.950500 2086.323975,862.048279 2083.060059,862.058716 
	C2053.561768,862.153137 2024.062744,862.114502 1993.578125,862.113525 
M1296.214844,894.499939 
	C1296.214844,959.414246 1296.214844,1024.328613 1296.214844,1089.452759 
	C1319.521484,1089.452759 1342.219360,1089.452759 1365.486084,1089.452759 
	C1365.486084,1069.879883 1365.486084,1050.654053 1365.486084,1031.202637 
	C1367.171143,1031.106689 1368.302979,1030.986206 1369.434692,1030.986084 
	C1402.420410,1030.980713 1435.406250,1030.962646 1468.391846,1031.025879 
	C1472.207642,1031.033203 1476.058960,1031.256226 1479.831421,1031.806396 
	C1493.273193,1033.766602 1497.940918,1039.079224 1498.152954,1052.733521 
	C1498.315918,1063.226562 1498.203857,1073.723877 1498.240723,1084.219238 
	C1498.246826,1085.977051 1498.388306,1087.734375 1498.467529,1089.496338 
	C1521.644043,1089.496338 1544.226807,1089.496338 1566.671509,1089.496338 
	C1566.671509,1070.065552 1567.308228,1050.925659 1566.424927,1031.856323 
	C1565.921875,1020.995361 1559.421387,1012.571289 1549.760498,1007.221863 
	C1545.054077,1004.615784 1540.014282,1002.612000 1535.117065,1000.327087 
	C1535.358154,1000.111511 1535.566650,999.826538 1535.847046,999.694885 
	C1536.447388,999.413086 1537.071411,999.163269 1537.709106,998.982300 
	C1555.154175,994.032471 1564.711548,982.039734 1567.776733,964.642151 
	C1571.074585,945.923645 1570.927124,927.163818 1566.996826,908.527771 
	C1562.436768,886.905884 1549.467041,872.655579 1527.991211,867.687866 
	C1514.947144,864.670654 1501.385376,862.548828 1488.034546,862.428772 
	C1425.566528,861.867065 1363.090942,862.138977 1300.618042,862.126892 
	C1299.330688,862.126648 1298.043335,862.294006 1296.214844,862.420593 
	C1296.214844,872.942261 1296.214844,883.221069 1296.214844,894.499939 
M1037.500000,731.977173 
	C1055.664062,731.977478 1073.829224,731.877258 1091.991455,732.059692 
	C1095.806152,732.097961 1098.446899,730.955688 1101.113037,728.218018 
	C1123.424561,705.307068 1145.894775,682.550781 1168.304321,659.735229 
	C1175.385254,652.525879 1182.427246,645.278137 1189.794189,637.733459 
	C1137.179199,597.051331 1085.069946,556.760376 1032.564453,516.162842 
	C998.384399,588.343689 964.535278,659.825684 930.369080,731.977173 
	C966.534302,731.977173 1001.517151,731.977173 1037.500000,731.977173 
M1482.161377,572.336182 
	C1473.049561,553.723633 1463.937866,535.111023 1454.665283,516.169739 
	C1402.627319,556.838379 1351.098999,597.108765 1299.332153,637.565430 
	C1300.291504,638.701599 1300.958008,639.617676 1301.748901,640.409424 
	C1331.181763,669.873474 1360.651001,699.301208 1390.020874,728.827820 
	C1392.328369,731.147583 1394.643433,732.028931 1397.879150,732.023743 
	C1450.195801,731.939697 1502.512573,731.970947 1554.829346,731.975952 
	C1556.279541,731.976135 1557.729614,731.976013 1560.109863,731.976013 
	C1534.011230,678.498047 1508.265869,625.744324 1482.161377,572.336182 
M246.754883,885.500122 
	C246.754883,877.887573 246.754883,870.275024 246.754883,862.419189 
	C223.490677,862.419189 200.767807,862.419189 178.041656,862.419189 
	C178.041656,938.291016 178.041656,1013.841614 178.041656,1089.371582 
	C201.102615,1089.371582 223.799606,1089.371582 246.754868,1089.371582 
	C246.754868,1021.446533 246.754868,953.973328 246.754883,885.500122 
M1223.277466,693.808350 
	C1206.823242,706.165466 1190.369141,718.522522 1172.864502,731.668579 
	C1219.687622,731.668579 1264.812988,731.668579 1311.234497,731.668579 
	C1288.116699,713.480713 1265.964966,696.052917 1243.698853,678.535095 
	C1236.878540,683.631409 1230.362061,688.500793 1223.277466,693.808350 
M2383.539795,905.255554 
	C2384.333740,876.994568 2359.449463,857.293335 2333.444824,865.594666 
	C2315.643555,871.277344 2304.263184,890.078674 2307.301758,908.785461 
	C2310.422607,927.999573 2327.062012,942.050964 2346.088135,941.538879 
	C2365.830322,941.007568 2381.118652,926.530762 2383.539795,905.255554 
z"/>
<path fill="#C21030" opacity="1.000000" stroke="none" 
	d="
M1606.420288,725.560730 
	C1601.025146,693.809998 1595.753662,662.470276 1590.459595,631.134399 
	C1582.590454,584.556335 1574.704468,537.981018 1566.827637,491.404266 
	C1564.470093,477.464111 1562.343506,463.478821 1559.622681,449.610016 
	C1558.841431,445.628418 1559.904175,443.592834 1562.864502,441.271515 
	C1628.530518,389.779755 1694.128174,338.200653 1759.734985,286.633484 
	C1760.494995,286.036163 1761.205688,285.376038 1762.980835,283.849792 
	C1742.545654,283.849792 1723.255005,283.849792 1703.422363,283.849792 
	C1703.422363,253.702728 1703.422363,224.295578 1703.422363,194.562347 
	C1671.793579,194.562347 1640.717407,194.562347 1609.112305,194.562347 
	C1609.112305,224.025421 1609.112305,253.426712 1609.112305,283.352936 
	C1606.842041,283.463593 1605.069702,283.625000 1603.297363,283.625519 
	C1532.470703,283.647064 1461.644043,283.635956 1390.817505,283.725677 
	C1387.825562,283.729462 1385.923706,282.850159 1384.243896,280.371887 
	C1378.357178,271.687592 1372.142334,263.223846 1366.340576,254.484833 
	C1364.459351,251.651001 1362.856934,251.376572 1359.856201,252.644501 
	C1350.195557,256.726257 1340.493042,260.754852 1330.607788,264.239288 
	C1325.866333,265.910614 1320.681030,267.139465 1315.690552,267.161682 
	C1267.029297,267.378693 1218.366577,267.351990 1169.704834,267.198517 
	C1165.849487,267.186371 1161.800781,266.217529 1158.183350,264.813477 
	C1147.190063,260.546539 1136.364136,255.847900 1125.048340,251.140686 
	C1118.726929,260.888611 1112.444824,270.456848 1106.310181,280.118713 
	C1104.749634,282.576355 1103.042114,283.707764 1099.939087,283.703552 
	C1027.779297,283.606079 955.619385,283.629913 883.459473,283.624664 
	C882.481323,283.624603 881.503235,283.539703 880.073364,283.473480 
	C880.073364,253.819016 880.073364,224.410339 880.073364,194.610962 
	C849.026062,194.610962 818.457886,194.610962 787.307495,194.610962 
	C787.307495,224.009583 787.307495,253.401459 787.307495,283.481354 
	C767.397522,283.481354 748.048889,283.481354 728.700317,283.481354 
	C728.565552,283.878845 728.430786,284.276306 728.296082,284.673798 
	C733.294189,288.639771 738.276062,292.626465 743.293030,296.568420 
	C784.810242,329.189301 826.335266,361.800110 867.855042,394.417694 
	C887.893494,410.159668 907.869385,425.982452 928.025024,441.572937 
	C930.853699,443.760925 931.568359,445.920105 931.011841,449.178406 
	C923.532410,492.970978 916.106628,536.772705 908.672546,580.572998 
	C900.489807,628.783936 892.313171,676.995972 884.129272,725.206665 
	C883.771240,727.315613 883.366577,729.416748 882.944946,731.734497 
	C881.171082,731.825317 879.699158,731.966370 878.227234,731.966553 
	C819.732605,731.972900 761.237793,732.042236 702.743408,731.920105 
	C682.654358,731.878113 665.262451,724.845276 651.292358,710.206055 
	C640.661316,699.065857 636.001343,685.675781 636.014221,670.228455 
	C636.127930,533.907776 636.078796,397.586884 636.078430,261.266083 
	C636.078308,230.602234 636.083740,199.938385 636.081360,169.274536 
	C636.078857,137.430359 659.967651,110.181252 691.698547,106.079079 
	C697.291382,105.356041 702.984497,105.142426 708.631409,105.141762 
	C1065.598633,105.099724 1422.565918,105.106712 1779.533081,105.098328 
	C1801.161011,105.097816 1819.691895,112.241875 1834.022461,128.829681 
	C1843.187744,139.438614 1847.794434,151.869125 1847.794556,165.940414 
	C1847.797119,334.924896 1847.818359,503.909393 1847.776733,672.893860 
	C1847.770264,699.049316 1829.521606,721.945068 1802.717651,729.022156 
	C1795.718872,730.870056 1788.277710,731.812805 1781.034424,731.842468 
	C1725.207031,732.071228 1669.378296,731.899902 1613.550781,732.103088 
	C1608.660889,732.120850 1606.419189,730.842285 1606.420288,725.560730 
z"/>
<path fill="#252122" opacity="1.000000" stroke="none" 
	d="
M844.000000,915.930725 
	C826.501282,915.930298 809.502380,915.887207 792.503967,915.960999 
	C788.519348,915.978271 784.478760,916.041748 780.563782,916.688599 
	C769.547668,918.508911 765.422363,923.786987 765.849670,934.900879 
	C766.186218,943.656189 769.997742,948.657227 778.554260,950.372559 
	C783.409790,951.345886 788.466675,951.653687 793.434998,951.671753 
	C833.930786,951.819092 874.430115,951.578369 914.921021,952.066528 
	C924.132080,952.177551 933.507690,953.915466 942.467834,956.223328 
	C958.477051,960.346863 968.532471,971.209351 972.791077,987.069580 
	C977.751709,1005.544739 978.205078,1024.354614 974.543762,1043.058105 
	C969.759644,1067.497925 953.891907,1081.572998 930.023865,1085.678467 
	C914.514771,1088.346191 898.582642,1089.513428 882.827881,1089.624268 
	C821.168823,1090.057983 759.505005,1089.805786 697.842957,1089.796509 
	C696.380066,1089.796265 694.917114,1089.655762 693.189880,1089.567261 
	C693.189880,1071.721558 693.189880,1054.155029 693.189880,1036.004272 
	C695.300842,1036.004272 697.244690,1036.004272 699.188477,1036.004150 
	C759.017334,1036.003784 818.846252,1036.054688 878.674805,1035.913574 
	C883.933777,1035.901245 889.389038,1035.298218 894.402344,1033.797485 
	C902.815552,1031.278931 906.014343,1024.388062 904.820801,1013.640076 
	C903.946106,1005.763428 900.183655,1002.098633 891.290527,1000.973755 
	C887.171692,1000.452820 882.984802,1000.281982 878.828308,1000.276306 
	C841.497864,1000.225647 804.164368,1000.511230 766.838501,1000.093994 
	C754.916260,999.960754 742.830688,998.963013 731.145447,996.688477 
	C713.237244,993.202698 701.514282,982.034241 697.294250,963.994385 
	C692.944763,945.400757 692.456299,926.647034 697.184631,908.042664 
	C702.955566,885.336243 718.496094,872.210632 740.593079,867.238220 
	C753.342651,864.369263 766.606567,862.432129 779.644165,862.402832 
	C935.131653,862.053467 1090.620117,862.141785 1246.108398,862.115479 
	C1247.244751,862.115295 1248.380981,862.115417 1249.871826,862.115417 
	C1249.871826,880.061218 1249.871826,897.643555 1249.871826,915.775269 
	C1218.805908,915.775269 1187.585083,915.775269 1155.865234,915.775269 
	C1155.865234,973.886047 1155.865234,1031.452759 1155.865234,1089.415771 
	C1133.143555,1089.415771 1110.920776,1089.415771 1088.196289,1089.415771 
	C1088.196289,1031.862915 1088.196289,974.301880 1088.196289,915.930725 
	C1006.633057,915.930725 925.566528,915.930725 844.000000,915.930725 
z"/>
<path fill="#C21030" opacity="1.000000" stroke="none" 
	d="
M1083.250977,422.749268 
	C1060.555786,399.266968 1038.104248,376.041016 1015.172058,352.317810 
	C1016.930237,351.516632 1018.166077,350.863342 1019.464111,350.375244 
	C1047.042603,340.005554 1074.572510,329.501526 1102.266235,319.449005 
	C1106.915405,317.761444 1112.279419,318.043671 1118.477539,317.270447 
	C1116.228149,331.059448 1114.164917,343.707306 1112.023926,356.830963 
	C1117.575684,357.433655 1122.786377,357.999329 1128.390381,358.607697 
	C1130.334961,346.576294 1132.405518,334.983551 1133.986572,323.324402 
	C1134.541138,319.234650 1135.795288,317.123138 1140.150146,317.947113 
	C1143.627808,318.605103 1145.501587,316.849426 1147.236816,313.974915 
	C1153.605469,303.424835 1160.309448,293.077362 1166.699585,282.539795 
	C1168.283936,279.927032 1170.102417,279.035126 1173.123779,279.041016 
	C1217.956055,279.128235 1262.788452,279.142395 1307.620483,278.999115 
	C1311.119751,278.987946 1313.114868,280.456848 1315.103882,282.882965 
	C1322.390503,291.770477 1329.878296,300.494537 1337.085083,309.445435 
	C1341.329834,314.717621 1345.151978,320.366211 1353.792480,317.547974 
	C1355.508179,327.998230 1357.170654,337.766815 1358.703735,347.555634 
	C1360.517334,359.134491 1360.469727,359.147552 1372.014160,357.482666 
	C1373.473633,357.272217 1374.919678,356.968689 1376.845825,356.623322 
	C1374.744019,343.823822 1372.681519,331.263214 1370.577026,318.446991 
	C1375.573853,318.446991 1380.575928,317.229614 1384.671143,318.641876 
	C1414.247192,328.841522 1443.639648,339.573151 1473.970459,350.451904 
	C1397.119873,430.012024 1320.626465,509.202240 1243.672485,588.869385 
	C1190.084473,533.379028 1136.789551,478.192291 1083.250977,422.749268 
z"/>
<path fill="#242021" opacity="1.000000" stroke="none" 
	d="
M1908.789795,880.206299 
	C1921.296021,892.761414 1926.260498,908.462158 1926.692993,924.960022 
	C1927.569946,958.407288 1927.550781,991.909485 1926.623535,1025.353638 
	C1926.341064,1035.539062 1923.091431,1046.121094 1919.079224,1055.625977 
	C1910.328613,1076.355469 1892.104736,1084.740967 1871.233032,1087.782715 
	C1858.416626,1089.650269 1845.380371,1090.710449 1832.430664,1090.829712 
	C1793.108765,1091.191895 1753.776978,1091.232300 1714.457764,1090.717651 
	C1701.532471,1090.548462 1688.439453,1089.294800 1675.763550,1086.804199 
	C1647.092041,1081.170776 1631.736938,1064.670776 1627.042969,1035.849854 
	C1625.842285,1028.476929 1625.083496,1020.953979 1625.005371,1013.490723 
	C1624.755615,989.664612 1624.697388,965.830933 1625.044922,942.007080 
	C1625.170776,933.387329 1625.977051,924.654968 1627.635620,916.202087 
	C1633.784058,884.867371 1650.371094,868.611023 1682.001099,864.213440 
	C1698.107178,861.974121 1714.512817,861.189697 1730.794189,861.052429 
	C1769.447510,860.726501 1808.109619,860.978699 1846.763306,861.422485 
	C1860.750854,861.583069 1874.885986,862.687927 1887.976318,868.062744 
	C1895.238037,871.044373 1901.722778,875.918213 1908.789795,880.206299 
M1754.517944,917.133423 
	C1743.086914,918.088440 1731.505005,918.198181 1720.261353,920.203796 
	C1704.799805,922.961853 1696.156250,932.009644 1695.080200,947.667908 
	C1693.827271,965.900879 1693.523804,984.314331 1694.533447,1002.553955 
	C1695.482544,1019.699585 1703.797119,1027.472046 1720.760376,1030.119873 
	C1727.649170,1031.195190 1734.667725,1031.869385 1741.634644,1031.933716 
	C1765.458008,1032.153809 1789.285645,1032.154907 1813.109009,1031.942505 
	C1820.076904,1031.880493 1827.108765,1031.272339 1833.985229,1030.145630 
	C1852.095459,1027.178223 1860.129883,1018.273621 1860.936157,999.841858 
	C1861.503662,986.869568 1861.326782,973.856995 1861.190674,960.865479 
	C1861.133423,955.395325 1860.742188,949.857971 1859.773315,944.482605 
	C1857.601074,932.431091 1850.615479,924.207275 1838.629150,921.087708 
	C1832.383789,919.462341 1825.886719,918.144958 1819.467773,917.966980 
	C1798.158081,917.376465 1776.832275,917.366028 1754.517944,917.133423 
z"/>
<path fill="#242021" opacity="1.000000" stroke="none" 
	d="
M473.131317,920.855225 
	C502.239441,956.779236 531.131958,992.421631 561.024292,1029.297485 
	C561.024292,972.714478 561.024292,917.706299 561.024292,862.408569 
	C583.842712,862.408569 606.086548,862.408569 628.665771,862.408569 
	C628.665771,938.029968 628.665771,1013.585144 628.665771,1089.582397 
	C627.043701,1089.655640 625.432922,1089.790649 623.822144,1089.791382 
	C593.826416,1089.804932 563.830444,1089.756714 533.835144,1089.868408 
	C530.540283,1089.880615 528.386230,1088.897583 526.253723,1086.317871 
	C482.957550,1033.940552 439.562805,981.644653 396.178040,929.340576 
	C395.378052,928.376038 394.459717,927.509583 392.740051,925.692200 
	C392.740051,980.903442 392.740051,1034.913818 392.740051,1089.371338 
	C369.815338,1089.371338 347.475922,1089.371338 324.867676,1089.371338 
	C324.867676,1013.734375 324.867676,938.313782 324.867676,862.483826 
	C326.356506,862.358093 327.777069,862.134399 329.197784,862.133484 
	C360.026764,862.112793 390.855957,862.070496 421.684174,862.222961 
	C423.691956,862.232849 426.377045,863.211609 427.591980,864.689331 
	C442.823883,883.215454 457.842468,901.916992 473.131317,920.855225 
z"/>
<path fill="#242021" opacity="1.000000" stroke="none" 
	d="
M1994.071045,862.114258 
	C2024.062744,862.114502 2053.561768,862.153137 2083.060059,862.058716 
	C2086.323975,862.048279 2088.457764,862.950500 2090.614990,865.627563 
	C2133.674316,919.066528 2176.865234,972.399780 2220.038330,1025.747192 
	C2220.710449,1026.577515 2221.495605,1027.316040 2223.029053,1028.951538 
	C2223.029053,972.775879 2223.029053,917.738403 2223.029053,862.409912 
	C2245.783936,862.409912 2268.031982,862.409912 2290.643066,862.409912 
	C2290.643066,938.050171 2290.643066,1013.593872 2290.643066,1089.801025 
	C2288.735840,1089.801025 2286.960693,1089.800903 2285.185303,1089.801025 
	C2255.686523,1089.802734 2226.187256,1089.743042 2196.688965,1089.881714 
	C2192.865723,1089.899658 2190.349854,1088.865112 2187.820068,1085.802490 
	C2144.857666,1033.792236 2101.749512,981.902222 2058.663818,929.993774 
	C2057.625000,928.742188 2056.474121,927.583557 2054.536621,925.463562 
	C2054.536621,980.806519 2054.536621,1034.996094 2054.536621,1089.501099 
	C2031.723145,1089.501099 2009.489258,1089.501099 1986.972900,1089.501099 
	C1986.972900,1013.724670 1986.972900,938.161926 1986.972900,862.113525 
	C1989.329590,862.113525 1991.453857,862.113525 1994.071045,862.114258 
z"/>
<path fill="#242021" opacity="1.000000" stroke="none" 
	d="
M1296.214844,893.999878 
	C1296.214844,883.221069 1296.214844,872.942261 1296.214844,862.420593 
	C1298.043335,862.294006 1299.330688,862.126648 1300.618042,862.126892 
	C1363.090942,862.138977 1425.566528,861.867065 1488.034546,862.428772 
	C1501.385376,862.548828 1514.947144,864.670654 1527.991211,867.687866 
	C1549.467041,872.655579 1562.436768,886.905884 1566.996826,908.527771 
	C1570.927124,927.163818 1571.074585,945.923645 1567.776733,964.642151 
	C1564.711548,982.039734 1555.154175,994.032471 1537.709106,998.982300 
	C1537.071411,999.163269 1536.447388,999.413086 1535.847046,999.694885 
	C1535.566650,999.826538 1535.358154,1000.111511 1535.121216,1000.331299 
	C1540.014282,1002.612000 1545.054077,1004.615784 1549.760498,1007.221863 
	C1559.421387,1012.571289 1565.921875,1020.995361 1566.424927,1031.856323 
	C1567.308228,1050.925659 1566.671509,1070.065552 1566.671509,1089.496338 
	C1544.226807,1089.496338 1521.644043,1089.496338 1498.467529,1089.496338 
	C1498.388306,1087.734375 1498.246826,1085.977051 1498.240723,1084.219238 
	C1498.203857,1073.723877 1498.315918,1063.226562 1498.152954,1052.733521 
	C1497.940918,1039.079224 1493.273193,1033.766602 1479.831421,1031.806396 
	C1476.058960,1031.256226 1472.207642,1031.033203 1468.391846,1031.025879 
	C1435.406250,1030.962646 1402.420410,1030.980713 1369.434692,1030.986084 
	C1368.302979,1030.986206 1367.171143,1031.106689 1365.486084,1031.202637 
	C1365.486084,1050.654053 1365.486084,1069.879883 1365.486084,1089.452759 
	C1342.219360,1089.452759 1319.521484,1089.452759 1296.214844,1089.452759 
	C1296.214844,1024.328613 1296.214844,959.414246 1296.214844,893.999878 
M1498.877808,961.108521 
	C1499.507202,957.000916 1500.440796,952.913452 1500.714478,948.782227 
	C1502.093140,927.969849 1495.642944,921.056396 1474.858032,921.027466 
	C1439.868652,920.978760 1404.879150,921.010681 1369.889771,921.028015 
	C1368.470947,921.028748 1367.052124,921.226746 1365.747925,921.324219 
	C1365.747925,939.319641 1365.747925,956.880615 1365.747925,974.327759 
	C1366.468506,974.525146 1366.785767,974.688171 1367.103027,974.688232 
	C1403.425049,974.691345 1439.746948,974.691833 1476.068970,974.650269 
	C1478.226685,974.647827 1480.393433,974.377014 1482.539917,974.104431 
	C1490.248291,973.125671 1496.026489,969.572021 1498.877808,961.108521 
z"/>
<path fill="#C21030" opacity="1.000000" stroke="none" 
	d="
M1037.000000,731.977173 
	C1001.517151,731.977173 966.534302,731.977173 930.369080,731.977173 
	C964.535278,659.825684 998.384399,588.343689 1032.564453,516.162842 
	C1085.069946,556.760376 1137.179199,597.051331 1189.794189,637.733459 
	C1182.427246,645.278137 1175.385254,652.525879 1168.304321,659.735229 
	C1145.894775,682.550781 1123.424561,705.307068 1101.113037,728.218018 
	C1098.446899,730.955688 1095.806152,732.097961 1091.991455,732.059692 
	C1073.829224,731.877258 1055.664062,731.977478 1037.000000,731.977173 
z"/>
<path fill="#C21030" opacity="1.000000" stroke="none" 
	d="
M1482.340942,572.663330 
	C1508.265869,625.744324 1534.011230,678.498047 1560.109863,731.976013 
	C1557.729614,731.976013 1556.279541,731.976135 1554.829346,731.975952 
	C1502.512573,731.970947 1450.195801,731.939697 1397.879150,732.023743 
	C1394.643433,732.028931 1392.328369,731.147583 1390.020874,728.827820 
	C1360.651001,699.301208 1331.181763,669.873474 1301.748901,640.409424 
	C1300.958008,639.617676 1300.291504,638.701599 1299.332153,637.565430 
	C1351.098999,597.108765 1402.627319,556.838379 1454.665283,516.169739 
	C1463.937866,535.111023 1473.049561,553.723633 1482.340942,572.663330 
z"/>
<path fill="#252122" opacity="1.000000" stroke="none" 
	d="
M246.754883,886.000122 
	C246.754868,953.973328 246.754868,1021.446533 246.754868,1089.371582 
	C223.799606,1089.371582 201.102615,1089.371582 178.041656,1089.371582 
	C178.041656,1013.841614 178.041656,938.291016 178.041656,862.419189 
	C200.767807,862.419189 223.490677,862.419189 246.754883,862.419189 
	C246.754883,870.275024 246.754883,877.887573 246.754883,886.000122 
z"/>
<path fill="#C31333" opacity="1.000000" stroke="none" 
	d="
M1223.561523,693.589233 
	C1230.362061,688.500793 1236.878540,683.631409 1243.698853,678.535095 
	C1265.964966,696.052917 1288.116699,713.480713 1311.234497,731.668579 
	C1264.812988,731.668579 1219.687622,731.668579 1172.864502,731.668579 
	C1190.369141,718.522522 1206.823242,706.165466 1223.561523,693.589233 
z"/>
<path fill="#363334" opacity="1.000000" stroke="none" 
	d="
M2383.500000,905.702942 
	C2381.118652,926.530762 2365.830322,941.007568 2346.088135,941.538879 
	C2327.062012,942.050964 2310.422607,927.999573 2307.301758,908.785461 
	C2304.263184,890.078674 2315.643555,871.277344 2333.444824,865.594666 
	C2359.449463,857.293335 2384.333740,876.994568 2383.500000,905.702942 
M2377.627930,892.216736 
	C2377.355469,891.430603 2377.115234,890.631348 2376.805420,889.860291 
	C2370.445068,874.043152 2354.457275,865.638000 2337.460693,869.168030 
	C2322.559570,872.262756 2310.916016,887.510742 2311.403320,903.291138 
	C2311.929199,920.315735 2323.931641,934.176636 2340.241699,936.604065 
	C2364.083496,940.152527 2384.634521,918.126282 2377.627930,892.216736 
z"/>
<path fill="#FEFEFE" opacity="1.000000" stroke="none" 
	d="
M1755.015259,917.133301 
	C1776.832275,917.366028 1798.158081,917.376465 1819.467773,917.966980 
	C1825.886719,918.144958 1832.383789,919.462341 1838.629150,921.087708 
	C1850.615479,924.207275 1857.601074,932.431091 1859.773315,944.482605 
	C1860.742188,949.857971 1861.133423,955.395325 1861.190674,960.865479 
	C1861.326782,973.856995 1861.503662,986.869568 1860.936157,999.841858 
	C1860.129883,1018.273621 1852.095459,1027.178223 1833.985229,1030.145630 
	C1827.108765,1031.272339 1820.076904,1031.880493 1813.109009,1031.942505 
	C1789.285645,1032.154907 1765.458008,1032.153809 1741.634644,1031.933716 
	C1734.667725,1031.869385 1727.649170,1031.195190 1720.760376,1030.119873 
	C1703.797119,1027.472046 1695.482544,1019.699585 1694.533447,1002.553955 
	C1693.523804,984.314331 1693.827271,965.900879 1695.080200,947.667908 
	C1696.156250,932.009644 1704.799805,922.961853 1720.261353,920.203796 
	C1731.505005,918.198181 1743.086914,918.088440 1755.015259,917.133301 
z"/>
<path fill="#FCFCFC" opacity="1.000000" stroke="none" 
	d="
M1498.745850,961.481201 
	C1496.026489,969.572021 1490.248291,973.125671 1482.539917,974.104431 
	C1480.393433,974.377014 1478.226685,974.647827 1476.068970,974.650269 
	C1439.746948,974.691833 1403.425049,974.691345 1367.103027,974.688232 
	C1366.785767,974.688171 1366.468506,974.525146 1365.747925,974.327759 
	C1365.747925,956.880615 1365.747925,939.319641 1365.747925,921.324219 
	C1367.052124,921.226746 1368.470947,921.028748 1369.889771,921.028015 
	C1404.879150,921.010681 1439.868652,920.978760 1474.858032,921.027466 
	C1495.642944,921.056396 1502.093140,927.969849 1500.714478,948.782227 
	C1500.440796,952.913452 1499.507202,957.000916 1498.745850,961.481201 
z"/>
<path fill="#F8F8F8" opacity="1.000000" stroke="none" 
	d="
M2377.744141,892.612427 
	C2384.634521,918.126282 2364.083496,940.152527 2340.241699,936.604065 
	C2323.931641,934.176636 2311.929199,920.315735 2311.403320,903.291138 
	C2310.916016,887.510742 2322.559570,872.262756 2337.460693,869.168030 
	C2354.457275,865.638000 2370.445068,874.043152 2376.805420,889.860291 
	C2377.115234,890.631348 2377.355469,891.430603 2377.744141,892.612427 
M2330.968750,910.479858 
	C2330.968750,914.251892 2330.968750,918.023926 2330.968750,922.203247 
	C2333.184814,922.058655 2334.737305,921.957336 2336.864258,921.818481 
	C2336.864258,915.692871 2336.864258,909.970398 2336.864258,904.460327 
	C2344.395264,903.175781 2349.419434,905.728271 2352.620605,912.000610 
	C2353.676025,914.067932 2355.245850,915.895142 2356.138428,918.017883 
	C2357.771240,921.902100 2360.294922,923.190857 2365.292236,921.256836 
	C2361.124023,915.046387 2357.132568,909.099426 2353.224609,903.276794 
	C2354.152588,902.928406 2355.766846,902.526978 2357.177979,901.754822 
	C2361.505615,899.387085 2363.761963,895.768616 2363.290283,890.710693 
	C2362.833252,885.809448 2360.031006,882.225525 2355.425537,881.601685 
	C2347.470215,880.524109 2339.379883,880.443176 2330.969238,879.920654 
	C2330.969238,890.558228 2330.969238,900.022766 2330.968750,910.479858 
z"/>
<path fill="#373435" opacity="1.000000" stroke="none" 
	d="
M2330.968994,909.983582 
	C2330.969238,900.022766 2330.969238,890.558228 2330.969238,879.920654 
	C2339.379883,880.443176 2347.470215,880.524109 2355.425537,881.601685 
	C2360.031006,882.225525 2362.833252,885.809448 2363.290283,890.710693 
	C2363.761963,895.768616 2361.505615,899.387085 2357.177979,901.754822 
	C2355.766846,902.526978 2354.152588,902.928406 2353.224609,903.276794 
	C2357.132568,909.099426 2361.124023,915.046387 2365.292236,921.256836 
	C2360.294922,923.190857 2357.771240,921.902100 2356.138428,918.017883 
	C2355.245850,915.895142 2353.676025,914.067932 2352.620605,912.000610 
	C2349.419434,905.728271 2344.395264,903.175781 2336.864258,904.460327 
	C2336.864258,909.970398 2336.864258,915.692871 2336.864258,921.818481 
	C2334.737305,921.957336 2333.184814,922.058655 2330.968750,922.203247 
	C2330.968750,918.023926 2330.968750,914.251892 2330.968994,909.983582 
M2336.574219,893.500122 
	C2336.653564,895.276245 2336.732910,897.052307 2336.814453,898.880737 
	C2341.823242,898.880737 2346.456543,899.093994 2351.059814,898.813904 
	C2354.801270,898.586304 2357.387207,896.350586 2357.619873,892.494812 
	C2357.854248,888.605042 2355.567383,886.092773 2351.767334,885.669922 
	C2346.886719,885.126831 2341.951416,885.076843 2336.573730,884.789551 
	C2336.573730,887.916565 2336.573730,890.217834 2336.574219,893.500122 
z"/>
<path fill="#F8F7F7" opacity="1.000000" stroke="none" 
	d="
M2336.573975,893.009644 
	C2336.573730,890.217834 2336.573730,887.916565 2336.573730,884.789551 
	C2341.951416,885.076843 2346.886719,885.126831 2351.767334,885.669922 
	C2355.567383,886.092773 2357.854248,888.605042 2357.619873,892.494812 
	C2357.387207,896.350586 2354.801270,898.586304 2351.059814,898.813904 
	C2346.456543,899.093994 2341.823242,898.880737 2336.814453,898.880737 
	C2336.732910,897.052307 2336.653564,895.276245 2336.573975,893.009644 
z"/>
</svg>