<?xml version="1.0" encoding="utf-8"?>
<!-- Generator: Adobe Illustrator 22.0.1, SVG Export Plug-In . SVG Version: 6.00 Build 0)  -->
<svg version="1.1" id="Layer_1" xmlns="http://www.w3.org/2000/svg" xmlns:xlink="http://www.w3.org/1999/xlink" x="0px" y="0px"
	 viewBox="0 0 640 480" style="enable-background:new 0 0 640 480;" xml:space="preserve">
<style type="text/css">
	.st0{fill:#FFFFFF;}
	.st1{fill:#EBCD5D;}
	.st2{fill:#DBAF06;}
	.st3{fill:#6F5903;}
	.st4{fill:none;}
</style>
<g>
	<path class="st0" d="M295.8,88.2c28.6-0.5,57.3-0.1,85.9-0.2c1.2,10.1,1.1,20.3,0,30.4c-7,0.1-14.1-0.1-21.1,0
		c-1.2,4.5-0.2,9.2-0.3,13.8c-0.1,30.8,0.1,61.6-0.1,92.4c0,1.9,0.2,3.9,0.4,5.8c7.1-0.1,14.1-0.1,21.2,0c1.1,10.1,1.1,20.4,0,30.5
		c-28.6-0.1-57.3,0.3-85.9-0.2c-0.3-10-0.4-20,0-30.1c7-0.5,14.1-0.3,21.2-0.3c0.2-3.4,0.3-6.8,0.3-10.2
		c-0.2-33.9,0.2-67.8-0.2-101.7c-7.1,0-14.1,0.1-21.2-0.2C295.5,108.2,295.5,98.2,295.8,88.2z"/>
	<g>
		<path class="st0" d="M390.5,361.2c9.4-1.4,20.1-1,27.8,5.3c6.8,5.3,9.2,14.5,8.7,22.8c-0.4,7.7,1,15.7-1.7,23.2
			c-2.7,8.4-10.8,14.2-19.3,15.5c-9.7,1.7-20.8,0.3-28.2-6.6c-5.7-5.7-7.8-14.1-7.4-22c0.4-8.2-1.3-17,2.6-24.7
			C376,367.6,382.9,362.6,390.5,361.2z M394.2,372.8c-6.8,2.3-7.6,10.5-7.3,16.6c0.4,7.2-1.1,14.7,1.6,21.6c2.4,5.7,9.6,7,14.9,5.2
			c4.2-1.6,6.3-6.1,6.9-10.2c0.3-6.3,0.1-12.6,0.2-18.9c0.1-4.1-0.6-8.4-3.3-11.6C403.9,372,398.5,371.4,394.2,372.8z"/>
	</g>
	<g>
		<path class="st0" d="M253.2,361.7c12.2,0.7,24.6-1.5,36.5,1.8c5.5,2.2,10.6,6.3,11.7,12.4c1.1,7.8,1.8,17.2-4.1,23.4
			c-7.3,7.1-18.2,7.5-27.8,7.1c-0.3,7,0.1,14.1-0.2,21.2c-5.3-0.2-10.7-0.1-16,0C253,405.6,253.3,383.6,253.2,361.7z M269.4,373.3
			c0,7.1,0.1,14.1,0,21.2c4.7,0,10.3,1,14.1-2.4c3-3.9,2.4-9.5,1.5-14C282.6,371.9,274.7,373.5,269.4,373.3z"/>
	</g>
	<g>
		<path class="st0" d="M311.4,361.7c9.1,0.2,18.2-0.1,27.3,0.1c7.1,0.1,14.8,2.8,19,8.8c3.5,5.2,2.7,11.7,2.4,17.5
			c-1,5.5-5.5,9.3-10,12c2.4,5,4.9,10,7.8,14.7c1.1,2.1,3.7,2.2,5.7,3c0,3.2-0.1,6.4-0.1,9.6c-6,2.1-13.9,1.8-17.9-3.9
			c-4-6.1-6.8-12.9-10.1-19.4c-2.5-0.4-5-0.7-7.5-0.9c-0.3,8-0.1,16.1-0.2,24.1c-5.5-0.1-10.9-0.1-16.4-0.1
			C311.4,405.5,311.3,383.6,311.4,361.7z M327.8,373.1c0.1,6.7-0.1,13.3,0.1,20c5-0.4,11.9,1.3,15-3.9c1.5-3.7,1.1-8.2,0.2-12
			C340.2,371.5,333.1,373.2,327.8,373.1z"/>
	</g>
	<g>
		<path class="st1" d="M169.4,23c3.2-1.5,5.2-4.9,8.8-5.6c3-0.5,6-0.3,9.1-0.3c96.9,0,193.8,0,290.6,0c3.6,0.4,7.7,1.1,10.2,4
			c-2.8-0.6-5.6-1.6-8.4-2.3c-4.6-1.2-9.4-0.6-14.1-0.7c-92.8,0-185.5,0-278.3,0c-2.8,0-5.7-0.2-8.5-0.3c-0.4,2.1-0.7,4.2-0.8,6.3
			c0,100.2,0,200.4,0,300.7c-0.6,3.6,2.8,5.7,6,5.2c104.4-0.1,208.7,0.1,313.1-0.1c0.6-1.4,1.3-2.8,1.9-4.2
			c-0.1,1.6-0.2,3.3-0.3,4.9c-106,0.2-212.1,0-318.1,0.1c-2.6,0-4.7,1.5-6.9,2.8c-8.8,5.6-17.9,10.7-26.7,16.4
			c-12.2,6.9-23.7,14.8-35.9,21.6c-0.3-7-1.1-14-0.9-21c0-96.1,0-192.3,0-288.5c-0.7-5,5.1-6,8.2-8.3c6.2-4.4,13-7.8,19.4-11.9
			C148.5,35.9,158.6,28.9,169.4,23z"/>
		<g>
			<path class="st1" d="M295.7,86c3.8,1.4,7.8,1.6,11.8,1.4c21.2-0.1,42.3,0.1,63.5-0.1c4.7,0,9.5-0.6,14,0.7
				c-0.9,1.8-1.5,3.7-0.7,5.7c-1.1,6.3-1.2,12.9,0,19.2c-0.9,1.9-0.2,3.8,0.8,5.6c-7.3,1.9-15,0.3-22.4,0.9
				c-1.3,2.2-1.5,4.8-1.4,7.4c0,33.9-0.2,67.9,0.1,101.8c6,1.4,12.3,0.9,18.4,1c1.6,0.1,3.5-0.1,4.9,0.9c-1.6,7.9-1.5,16.1-0.6,24
				c0.1,0.3,0.4,0.8,0.6,1.1c-0.3,0.6-0.9,1.8-1.2,2.4c0.5,0.9,1.1,1.8,1.6,2.7c-1.1,0.6-2.2,1.3-3.2,2c-3.3-0.4-6.5-0.9-9.8-0.9
				c-22.6-0.1-45.2,0-67.9-0.1c-2.9-0.1-5.7,0.7-8.6,1.2c-2.5-3.3-1.6-7.7-1.5-11.5c0.7-7.2-0.7-14.5,0.5-21.8
				c7.1-0.2,14.2,0,21.3-0.1c0.2-3.1,0.3-6.2,0.3-9.3c-0.2-33.6,0.2-67.3-0.2-100.9c-6.8,0.1-13.8-0.9-20.3,1.2
				c-1-2.3-2.8-4.4-3.2-6.9c2.4-5.3,1.2-11.3,1.2-17C290.9,92.8,294,89.3,295.7,86z M295.8,88.2c-0.3,10-0.3,20,0,30
				c7.1,0.3,14.1,0.2,21.2,0.2c0.4,33.9,0,67.8,0.2,101.7c0,3.4-0.1,6.8-0.3,10.2c-7,0-14.1-0.2-21.2,0.3c-0.3,10-0.3,20,0,30.1
				c28.6,0.5,57.3,0.1,85.9,0.2c1.2-10.1,1.1-20.4,0-30.5c-7.1-0.1-14.2-0.1-21.2,0c-0.2-1.9-0.3-3.9-0.4-5.8
				c0.2-30.8,0-61.6,0.1-92.4c0.1-4.6-0.9-9.3,0.3-13.8c7,0,14.1,0.1,21.1,0c1.1-10.1,1.2-20.3,0-30.4
				C353.1,88.1,324.4,87.7,295.8,88.2z"/>
		</g>
	</g>
	<g>
		<path class="st2" d="M178,24.1c0.1-2.1,0.5-4.2,0.8-6.3c2.8,0.1,5.6,0.3,8.5,0.3c92.8,0,185.5,0,278.3,0c4.7,0.1,9.5-0.5,14.1,0.7
			c2.8,0.7,5.6,1.6,8.4,2.3c0.3,0.1,0.9,0.2,1.2,0.3c3.9,2.6,6.3,6.6,8.5,10.5c2.2,6.9,1.4,14.1,1.5,21.2c-0.1,11.3,0.1,22.7-0.1,34
			c-0.1,69.2,0,138.4,0,207.6c-0.2,10.3,0.3,20.6-0.2,31c-0.6,1.4-1.2,2.8-1.9,4.2c-104.4,0.2-208.7,0-313.1,0.1
			c-3.2,0.5-6.6-1.7-6-5.2C178.1,224.6,178.1,124.3,178,24.1z M295.7,86c-1.7,3.4-4.8,6.9-2,10.6c0,5.6,1.2,11.7-1.2,17
			c0.4,2.5,2.2,4.6,3.2,6.9c6.6-2.2,13.5-1.1,20.3-1.2c0.4,33.6,0,67.3,0.2,100.9c0,3.1-0.1,6.2-0.3,9.3c-7.1,0.1-14.2-0.1-21.3,0.1
			c-1.2,7.2,0.2,14.5-0.5,21.8c-0.1,3.8-1,8.2,1.5,11.5c2.8-0.5,5.7-1.3,8.6-1.2c22.6,0.1,45.2,0,67.9,0.1c3.3,0,6.5,0.5,9.8,0.9
			c1.1-0.7,2.1-1.3,3.2-2c-0.6-0.9-1.1-1.8-1.6-2.7c0.3-0.6,0.9-1.8,1.2-2.4c-0.1-0.3-0.4-0.8-0.6-1.1c-0.8-7.9-1-16.2,0.6-24
			c-1.4-1-3.3-0.8-4.9-0.9c-6.1-0.1-12.4,0.4-18.4-1c-0.3-33.9-0.1-67.9-0.1-101.8c-0.1-2.5,0.1-5.1,1.4-7.4
			c7.4-0.6,15.1,1,22.4-0.9c-1-1.7-1.6-3.6-0.8-5.6c-1.2-6.3-1.2-12.9,0-19.2c-0.8-2-0.2-3.9,0.7-5.7c-4.6-1.3-9.4-0.6-14-0.7
			c-21.2,0.1-42.3,0-63.5,0.1C303.5,87.6,299.5,87.3,295.7,86z"/>
	</g>
	<g>
		<g>
			<path class="st3" d="M499.3,87.1c10.2,0.1,20.4,0.1,30.6,0c0.1,125.2-0.1,250.4,0.1,375.5c-16.2,0.6-32.4-0.3-48.7,0.2
				c-104.3,0-208.6,0-312.9,0c-11.5-0.3-21.4-10.9-21-22.3c0-24.9,0-49.7,0-74.6c0-5.4,0.2-10.7-0.4-16.1
				c8.8-5.7,17.9-10.8,26.7-16.4c2.1-1.3,4.3-2.8,6.9-2.8c106-0.1,212.1,0.1,318.1-0.1c0.1-1.6,0.2-3.3,0.3-4.9
				c0.5-10.3,0.1-20.6,0.2-31C499.2,225.5,499.1,156.3,499.3,87.1z M390.5,361.2c-7.5,1.4-14.4,6.4-17.5,13.5
				c-3.9,7.7-2.2,16.5-2.6,24.7c-0.4,7.9,1.6,16.3,7.4,22c7.4,6.9,18.5,8.3,28.2,6.6c8.5-1.3,16.6-7.2,19.3-15.5
				c2.8-7.4,1.4-15.4,1.7-23.2c0.4-8.3-1.9-17.5-8.7-22.8C410.6,360.1,399.9,359.8,390.5,361.2z M253.2,361.7
				c0.1,21.9-0.2,43.9,0.1,65.8c5.3-0.1,10.7-0.1,16,0c0.3-7.1-0.1-14.1,0.2-21.2c9.6,0.4,20.5,0,27.8-7.1c6-6.2,5.2-15.6,4.1-23.4
				c-1.1-6.1-6.3-10.2-11.7-12.4C277.9,360.2,265.4,362.4,253.2,361.7z M311.4,361.7c-0.1,21.9-0.1,43.8,0,65.7
				c5.5,0.1,10.9,0,16.4,0.1c0.1-8-0.2-16.1,0.2-24.1c2.5,0.2,5,0.5,7.5,0.9c3.3,6.5,6.1,13.3,10.1,19.4c4,5.7,11.9,5.9,17.9,3.9
				c0-3.2,0.1-6.4,0.1-9.6c-2-0.8-4.6-0.9-5.7-3c-2.8-4.8-5.3-9.7-7.8-14.7c4.5-2.7,9-6.5,10-12c0.3-5.9,1-12.4-2.4-17.5
				c-4.2-6.1-11.8-8.7-19-8.8C329.6,361.6,320.5,361.8,311.4,361.7z"/>
		</g>
		<path class="st3" d="M394.2,372.8c4.3-1.4,9.8-0.8,13,2.7c2.7,3.2,3.3,7.5,3.3,11.6c-0.1,6.3,0.2,12.6-0.2,18.9
			c-0.6,4.1-2.7,8.7-6.9,10.2c-5.3,1.8-12.5,0.5-14.9-5.2c-2.7-6.9-1.1-14.4-1.6-21.6C386.6,383.3,387.4,375.1,394.2,372.8z"/>
		<path class="st3" d="M327.8,373.1c5.2,0.1,12.3-1.6,15.4,4c0.9,3.9,1.3,8.3-0.2,12c-3.1,5.2-10,3.6-15,3.9
			C327.8,386.4,327.9,379.8,327.8,373.1z"/>
		<path class="st3" d="M269.4,373.3c5.3,0.3,13.2-1.4,15.6,4.8c0.9,4.5,1.5,10.1-1.5,14c-3.8,3.4-9.4,2.4-14.1,2.4
			C269.6,387.4,269.4,380.4,269.4,373.3z"/>
	</g>
</g>
<rect x="88.4" y="1.4" class="st4" width="463.2" height="477.3"/>
</svg>
